<svg width="26" height="26" viewBox="0 0 26 26" fill="none" xmlns="http://www.w3.org/2000/svg">
<path d="M22.1367 3.77567C19.6942 1.34233 16.445 0.00138855 12.9869 0C9.53656 0 6.2822 1.33975 3.82367 3.77249C1.36078 6.2094 0.00317383 9.44789 0 12.8796V12.8836V12.8859C0.000396729 14.963 0.546097 17.0583 1.58195 18.971L0.0355072 26L7.14548 24.3827C8.94623 25.2903 10.9555 25.7687 12.9819 25.7695H12.9871C16.4369 25.7695 19.6912 24.4296 22.1501 21.9966C24.6152 19.5577 25.9734 16.3234 25.975 12.8895C25.976 9.47983 24.613 6.24312 22.1367 3.77567ZM12.9869 23.7402H12.9823C11.1628 23.7394 9.35982 23.2826 7.76874 22.4187L7.43251 22.2362L2.7047 23.3116L3.73163 18.6445L3.53366 18.3031C2.54938 16.6057 2.02927 14.7319 2.02927 12.8838C2.03304 6.90169 6.9481 2.02927 12.9865 2.02927C15.9037 2.03046 18.6447 3.16133 20.7045 5.21321C22.7954 7.29683 23.9465 10.0228 23.9455 12.8889C23.9432 18.8724 19.0271 23.7402 12.9869 23.7402Z" fill="white"/>
<path d="M9.45296 7.2041H8.88365C8.68549 7.2041 8.36374 7.27829 8.09158 7.57445C7.81923 7.8708 7.05176 8.5871 7.05176 10.0439C7.05176 11.5007 8.11638 12.9083 8.26476 13.106C8.41333 13.3036 10.3198 16.3886 13.3393 17.5754C15.8488 18.5616 16.3596 18.3655 16.9041 18.3161C17.4488 18.2669 18.6618 17.6 18.9094 16.9087C19.1569 16.2174 19.1569 15.6247 19.0827 15.5009C19.0084 15.3775 18.8102 15.3035 18.5132 15.1555C18.2161 15.0074 16.7601 14.279 16.4877 14.18C16.2154 14.0814 16.0174 14.032 15.8193 14.3286C15.6211 14.6245 15.0377 15.3093 14.8643 15.5068C14.6912 15.7046 14.5178 15.7294 14.2206 15.5812C13.9235 15.4326 12.9765 15.1145 11.8417 14.106C10.9583 13.3211 10.3454 12.3201 10.172 12.0238C9.99886 11.7276 10.1536 11.5673 10.3026 11.4195C10.4361 11.287 10.6164 11.1057 10.7649 10.933C10.9133 10.76 10.9556 10.6366 11.0547 10.439C11.1537 10.2415 11.1041 10.0685 11.03 9.9205C10.9556 9.77232 10.3855 8.3082 10.1212 7.72263H10.1214C9.89888 7.22949 9.66461 7.21283 9.45296 7.2041Z" fill="white"/>
</svg>
