<svg width="975" height="1225" fill="none" xmlns="http://www.w3.org/2000/svg"><path d="M662.835 727.017l6.993 32.468 166.082-51.732-173.075 19.264zm6.456 34.04l-.359-.094-.337-.452-7.315-33.952.119-.539.495-.277 180.967-20.139a.688.688 0 01.78.531.686.686 0 01-.48.799l-173.649 54.091-.221.032zM105.458 1122.5l84.3 51.65 59.625-148.76-143.925 97.11zm84.649 53.36l-.38-.11-85.933-52.65-.331-.56.304-.57 146.712-98.99.847.02c.249.18.34.5.228.78l-60.779 151.64-.444.41-.224.03z" fill="#161616" fill-opacity=".2"/><path d="M191.14 1174.51l257.411 3.94-197.349-153.79-60.062 149.85zm259.458 5.34h-.009l-260.491-3.99-.58-.3-.073-.63 60.779-151.64.48-.42.635.14 199.711 155.63c.234.18.322.49.219.76a.715.715 0 01-.671.45zm393.721-473.773l298.041 114.918-147.15-234.348-150.891 119.43zm299.741 116.998l-.26-.05L842.677 706.92l-.441-.534.252-.63L994.94 585.087l.57-.148.489.32 148.681 236.777-.07.799-.55.24z" fill="#161616" fill-opacity=".2"/><path d="M450.402 1179.82l158.278 44.37 5.174.02-161.339-45.22 286.198-141.48-69.145 186.98 1.51.01 69.581-188.16a.679.679 0 00-.203-.75l-.799-.09-289.383 143.05a.699.699 0 00-.382.68.69.69 0 00.51.59z" fill="#161616" fill-opacity=".2"/><path d="M671.075 1224.49l69.315-187.43 187.672 87.46-231.185 100.1 3.425.02 229.736-99.48a.68.68 0 00.416-.61.685.685 0 00-.397-.63l-189.764-88.43-.58-.02-.401.41-69.743 188.61h1.506zm2.457-461.908l78.983 57.136 46.395-13.315-125.378-43.821zm78.84 58.573l-.428-.136-83.079-60.099a.666.666 0 01-.198-.875.728.728 0 01.872-.315l131.882 46.093c.288.099.479.37.47.662a.688.688 0 01-.507.635l-48.806 14.006-.206.029z" fill="#161616" fill-opacity=".2"/><path d="M671.483 760.409l129.289 45.185 40.944-98.208-170.233 53.023zm129.693 46.739l-.243-.04-131.882-46.092a.687.687 0 01-.471-.653.691.691 0 01.492-.642l173.652-54.088.738.181.143.723-41.764 100.183a.716.716 0 01-.665.428z" fill="#161616" fill-opacity=".2"/><path d="M753.059 820.988l-11.96 208.182 59.078-221.704-47.118 13.522zm-13.078 215.802l-.103-.01a.687.687 0 01-.604-.71l12.392-215.639a.687.687 0 01.507-.618l48.803-14.003.695.16.2.662-61.197 229.648c-.079.3-.371.51-.693.51z" fill="#161616" fill-opacity=".2"/><path d="M802.21 805.829l337.66 15.682-296.534-114.338-41.126 98.656zm341.85 17.246h-.03l-342.889-15.926-.562-.315-.063-.624 41.764-100.183.379-.373.547-.006 301.124 116.108c.33.123.51.455.44.782a.722.722 0 01-.71.537z" fill="#161616" fill-opacity=".2"/><path d="M808.716 446.528l34.768 258.441L994.257 585.63 808.716 446.528zm34.225 260.438l-.261-.046-.441-.548-35.156-261.319a.667.667 0 01.352-.68l.793.053 187.605 140.65.276.531-.258.536L843.4 706.809l-.459.157z" fill="#161616" fill-opacity=".2"/><path d="M809.156 445.126l185.343 138.952-23.885-208.522-161.458 69.57zm186.233 141.172l-.432-.146-187.611-140.647-.267-.621.413-.543 163.431-70.418.644.029.358.519 24.18 211.068a.69.69 0 01-.364.674l-.352.085z" fill="#161616" fill-opacity=".2"/><path d="M894.081 64.039l77.437 308.799L1221.89 1.672 894.081 64.039zm77.128 311.193l-.116-.009a.701.701 0 01-.571-.516L892.521 63.663l.094-.525.461-.303L1223.27.012c.27-.053.57.06.72.288l.01.756-252.187 373.86-.604.315z" fill="#161616" fill-opacity=".2"/><path d="M972.163 376.565l23.83 208.041 123.127-52.881-146.957-155.16zm23.226 209.733l-.349-.088-.352-.519-24.18-211.068a.674.674 0 01.416-.7.734.734 0 01.817.163l149.099 157.418.17.601-.4.484-124.927 53.65-.294.059z" fill="#161616" fill-opacity=".2"/><path d="M973.343 375.777l147.007 155.207 102.13-93.794-249.137-61.413zm146.967 156.869h-.02l-.5-.221-149.104-157.418-.081-.814a.719.719 0 01.786-.309l252.689 62.283.51.492-.2.665-103.58 95.133-.5.189z" fill="#161616" fill-opacity=".2"/><path d="M972.349 374.121l250.831 61.828-.49-432.95L972.349 374.12zm251.541 63.396l-.17-.023-252.682-62.282-.486-.414.064-.622L1222.81.316a.71.71 0 01.79-.286c.31.085.52.35.52.656l.49 436.146-.28.543-.44.142zM801.616 807.585l-60.663 227.655 318.007-56.942-257.344-170.713zm-61.635 229.205l-.516-.22-.173-.63 61.198-229.643.44-.473.653.077 259.597 172.204c.24.155.35.435.29.706a.689.689 0 01-.57.528l-320.785 57.441-.134.01z" fill="#161616" fill-opacity=".2"/><path d="M742.244 1036.4l187.317 87.29 129.349-143.992-316.666 56.702zm187.499 88.82l-.307-.07-189.761-88.43a.678.678 0 01-.398-.7c.043-.3.274-.53.58-.59l320.783-57.434c.3-.053.61.078.76.332l-.09.787-131.024 145.865-.543.24z" fill="#161616" fill-opacity=".2"/><path d="M803.637 807.267l256.873 170.396 82.42-154.642-339.293-15.754zm257.133 172.084l-.4-.118-259.599-172.204a.669.669 0 01-.268-.783c.101-.289.407-.467.708-.464l342.889 15.925.59.34.01.657-83.29 156.277-.46.353-.18.017z" fill="#161616" fill-opacity=".2"/><path d="M930.963 1124.23l87.127 29.69 41.35-172.714-128.477 143.024zm87.647 31.27l-.24-.04-88.865-30.28-.449-.47.149-.62 131.035-145.867a.73.73 0 01.86-.164c.29.14.44.455.37.762l-42.17 176.149-.35.45-.34.08zM208.834 953.051L10.844 1064.39l238.934-41.36-40.944-69.979zM7.018 1066.44a.712.712 0 01-.665-.45.674.674 0 01.306-.83l202.08-113.64.544-.071.437.325 41.789 71.426.024.63-.519.38-243.869 42.21-.127.02z" fill="#161616" fill-opacity=".2"/><path d="M210.201 952.599l40.805 69.731 81.008-92.978-121.813 23.247zm40.686 71.621h-.063l-.556-.35-41.789-71.426-.027-.621.507-.385 124.761-23.807a.722.722 0 01.75.321l-.066.79-82.967 95.238-.55.24zm353.027-481.216l-.173-.023a.683.683 0 01-.514-.834l39.193-144.963a.71.71 0 01.868-.49c.38.093.611.466.51.834l-39.192 144.963a.708.708 0 01-.692.513z" fill="#161616" fill-opacity=".2"/><path d="M643.614 398.216l-38.612 142.823 200.856-95.917-162.244-46.906zm-39.699 144.788l-.447-.154-.239-.703 39.192-144.963.34-.423.553-.058 164.676 47.608a.685.685 0 01.504.598.674.674 0 01-.392.668l-203.865 97.354-.322.073z" fill="#161616" fill-opacity=".2"/><path d="M605.21 544.046l57.278 181.63 178.538-19.868L605.21 544.046zm56.765 183.059a.705.705 0 01-.677-.484L603.24 542.518a.665.665 0 01.267-.753l.829-.003 239.022 163.965c.24.163.349.452.276.726a.705.705 0 01-.607.51l-180.964 20.139-.088.003z" fill="#161616" fill-opacity=".2"/><path d="M605.301 542.425l236.727 162.39-34.817-258.808-201.91 96.418zm237.641 164.542l-.413-.125-239.022-163.965-.298-.609.395-.56 203.865-97.355.653.009.371.516 35.159 261.319a.677.677 0 01-.343.674l-.367.096zm-181.379 20.896L543.5 850.249l125.004-90.163-6.941-32.223zm-123.969 128.19l-.525-.226a.662.662 0 01.006-.924l124.381-128.947.714-.193.507.522 7.315 33.95-.27.685-131.697 94.995-.431.138z" fill="#161616" fill-opacity=".2"/><path d="M669.295 761.229L540.37 854.221l210.258-34.159-81.333-58.833zm-131.7 94.824a.718.718 0 01-.653-.415.672.672 0 01.225-.819l131.7-94.993h.856l83.085 60.099a.666.666 0 01.258.709.692.692 0 01-.571.51L537.716 856.04l-.121.013z" fill="#161616" fill-opacity=".2"/><path d="M539.137 855.81l200.221 178.8 12.259-213.321-212.48 34.521zm200.844 180.98l-.48-.18-202.39-180.742-.197-.698.562-.477 214.782-34.897.592.162.236.55-12.391 215.642a.682.682 0 01-.444.59l-.27.05zM334.193 928.984l-80.929 92.896 240.89-93.435-159.961.539zm-83.307 95.236l-.573-.28.03-.84 82.97-95.238.543-.243 163.996-.553h.006a.706.706 0 01.696.553.681.681 0 01-.432.765l-246.968 95.786-.268.05z" fill="#161616" fill-opacity=".2"/><path d="M252.277 1023.74l197.835 154.16 46.811-249.05-244.646 94.89zm198.321 156.11l-.447-.15-199.711-155.63-.255-.64.437-.53 246.966-95.785.716.103.249.652-47.251 251.42-.452.52-.252.04z" fill="#161616" fill-opacity=".2"/><path d="M536.094 856.635l-198.245 70.969 159.575-.537 38.67-70.432zm-202.238 72.352a.709.709 0 01-.698-.563.68.68 0 01.452-.764l203.735-72.935a.74.74 0 01.787.189l.094.77-39.742 72.384-.629.364-163.996.555h-.003z" fill="#161616" fill-opacity=".2"/><path d="M498.39 928.745l-46.832 249.175 286.808-141.78L498.39 928.745zm-47.791 251.105l-.422-.13-.277-.68 47.255-251.411.373-.484.629-.015 242.128 108.36.413.6-.385.62-289.383 143.06-.331.08z" fill="#161616" fill-opacity=".2"/><path d="M498.832 927.432l237.361 106.228L537.79 856.477l-38.958 70.955zm241.147 109.358l-.297-.06-242.129-108.362-.376-.402.045-.536 39.742-72.381.51-.356.608.172 202.386 180.745c.258.23.304.6.107.88l-.596.3zm-96.873-638.749l-.589-.303a.667.667 0 01.197-.951l164.552-105.686a.73.73 0 01.987.19.666.666 0 01-.194.948L643.504 397.925l-.398.116z" fill="#161616" fill-opacity=".2"/><path d="M644.762 397.12l162.31 46.923-.121-151.093-162.189 104.17zm163.021 48.53l-.2-.03-164.68-47.608a.694.694 0 01-.498-.554l.31-.671 164.552-105.686.729-.035.379.604.122 153.294-.286.549-.428.137z" fill="#161616" fill-opacity=".2"/><path d="M808.376 292.807l.122 151.102 161.09-69.413-161.212-81.689zm-.592 152.843l-.385-.111-.322-.575-.125-153.294.343-.586.702-.018 163.552 82.876.38.627-.422.601-163.428 70.418-.295.062z" fill="#161616" fill-opacity=".2"/><path d="M808.543 291.343l161.609 81.89-77.073-307.35-84.536 225.46zm162.666 83.888l-.328-.082-163.55-82.873a.673.673 0 01-.34-.84l85.551-228.165c.106-.283.407-.49.707-.45a.702.702 0 01.656.522l78.002 311.042-.255.703-.443.143zM801.221 798.394c-4.64-.023-8.423 3.572-8.445 8.029-.024 4.458 3.717 8.088 8.36 8.112 4.64.023 8.423-3.572 8.448-8.031.024-4.456-3.723-8.086-8.363-8.11z" fill="#161616" fill-opacity=".2"/><path d="M801.236 795.657c-6.204-.029-11.281 4.794-11.311 10.755-.033 5.958 4.992 10.831 11.196 10.859 6.206.032 11.28-4.791 11.311-10.752.033-5.957-4.989-10.829-11.196-10.862zm-.015 2.738c4.64.024 8.387 3.654 8.362 8.11-.024 4.459-3.807 8.054-8.447 8.031-4.643-.024-8.384-3.654-8.36-8.113.022-4.456 3.805-8.051 8.445-8.028z" fill="#211D1D" fill-opacity=".2"/><path d="M7.043 1061.75c-2.305-.02-4.181 1.77-4.193 3.98-.012 2.21 1.846 4.01 4.15 4.03 2.305.01 4.182-1.78 4.194-3.99.012-2.21-1.846-4.01-4.15-4.02z" fill="#161616" fill-opacity=".2"/><path d="M7.057 1059.01c-3.872-.02-7.039 2.99-7.057 6.71-.021 3.71 3.113 6.75 6.984 6.77 3.872.02 7.039-2.99 7.06-6.71.018-3.71-3.116-6.75-6.987-6.77zm-.015 2.74c2.304.01 4.163 1.81 4.15 4.02-.011 2.21-1.888 4-4.193 3.99-2.304-.02-4.163-1.82-4.15-4.03.011-2.21 1.888-4 4.193-3.98z" fill="#211D1D" fill-opacity=".2"/><path d="M209.134 945.63c-3.726-.018-6.762 2.869-6.78 6.447-.022 3.578 2.985 6.494 6.71 6.511 3.726.019 6.763-2.869 6.781-6.444.018-3.577-2.985-6.493-6.711-6.514z" fill="#161616" fill-opacity=".2"/><path d="M209.146 942.894c-5.29-.026-9.617 4.086-9.644 9.169-.027 5.083 4.257 9.236 9.547 9.264 5.293.026 9.62-4.088 9.647-9.171.027-5.08-4.257-9.236-9.55-9.262zm-.012 2.736c3.726.021 6.729 2.937 6.711 6.515-.019 3.574-3.055 6.462-6.781 6.444-3.726-.017-6.732-2.934-6.711-6.511.019-3.578 3.055-6.466 6.781-6.448z" fill="#211D1D" fill-opacity=".2"/><path d="M603.938 538.409c-2.25-.012-4.081 1.732-4.093 3.89-.012 2.161 1.804 3.922 4.051 3.934 2.25.009 4.084-1.732 4.096-3.893.012-2.161-1.804-3.919-4.054-3.931z" fill="#161616" fill-opacity=".2"/><path d="M603.956 535.67c-3.817-.017-6.939 2.951-6.957 6.617-.021 3.665 3.07 6.663 6.887 6.681 3.817.017 6.938-2.949 6.96-6.614.018-3.666-3.073-6.663-6.89-6.684zm-.015 2.738c2.25.012 4.065 1.771 4.053 3.931-.012 2.161-1.846 3.902-4.096 3.893-2.247-.011-4.063-1.773-4.051-3.933.012-2.158 1.844-3.902 4.094-3.891z" fill="#211D1D" fill-opacity=".2"/><path d="M842.99 697.366c-5.129-.026-9.307 3.946-9.335 8.871-.024 4.925 4.112 8.938 9.237 8.961 5.129.027 9.307-3.945 9.335-8.87.027-4.926-4.112-8.938-9.237-8.962z" fill="#161616" fill-opacity=".2"/><path d="M843.007 694.628c-6.692-.032-12.164 5.171-12.197 11.595-.037 6.427 5.38 11.682 12.073 11.714 6.689.032 12.161-5.17 12.195-11.595.036-6.427-5.381-11.682-12.071-11.714zm-.015 2.739c5.126.023 9.265 4.036 9.237 8.961-.027 4.925-4.205 8.897-9.334 8.871-5.126-.024-9.261-4.036-9.237-8.962.027-4.925 4.206-8.897 9.334-8.87z" fill="#211D1D" fill-opacity=".2"/><path d="M661.954 730.87c2.557.015 4.643-1.968 4.655-4.424.012-2.455-2.05-4.458-4.609-4.47-2.56-.015-4.643 1.968-4.655 4.424-.012 2.458 2.049 4.458 4.609 4.47z" fill="#161616" fill-opacity=".2"/><path d="M662.015 719.236c-4.124-.02-7.501 3.188-7.519 7.148-.021 3.963 3.316 7.202 7.443 7.223 4.123.02 7.497-3.187 7.518-7.148.021-3.963-3.316-7.202-7.442-7.223zm-.016 2.738c2.56.012 4.625 2.016 4.61 4.471-.012 2.455-2.098 4.438-4.655 4.424-2.56-.012-4.622-2.013-4.61-4.471.013-2.455 2.096-4.438 4.655-4.424z" fill="#211D1D" fill-opacity=".2"/><path d="M669.318 755.344c-2.891-.015-5.244 2.225-5.259 5.004-.016 2.776 2.317 5.039 5.207 5.054 2.891.014 5.247-2.225 5.263-5.005.015-2.776-2.317-5.039-5.211-5.053z" fill="#161616" fill-opacity=".2"/><path d="M669.333 752.609c-4.455-.023-8.105 3.444-8.126 7.725-.021 4.281 3.586 7.783 8.044 7.803 4.46.024 8.104-3.441 8.129-7.724.024-4.281-3.587-7.783-8.047-7.804zm-.015 2.735c2.893.015 5.225 2.278 5.21 5.054-.015 2.779-2.371 5.019-5.262 5.004-2.891-.014-5.223-2.277-5.208-5.053.016-2.78 2.369-5.016 5.26-5.005z" fill="#211D1D" fill-opacity=".2"/><path d="M752.396 816.532c-2.262-.011-4.108 1.744-4.121 3.917-.012 2.175 1.816 3.945 4.078 3.956 2.263.013 4.109-1.742 4.121-3.916.009-2.172-1.816-3.945-4.078-3.957z" fill="#161616" fill-opacity=".2"/><path d="M752.413 813.798c-3.832-.017-6.966 2.96-6.984 6.637-.021 3.679 3.079 6.689 6.911 6.707 3.832.021 6.963-2.96 6.984-6.637.021-3.681-3.082-6.689-6.911-6.707zm-.015 2.735c2.262.012 4.087 1.784 4.078 3.957-.012 2.173-1.859 3.929-4.121 3.916-2.262-.011-4.09-1.784-4.078-3.956.012-2.173 1.858-3.929 4.121-3.917z" fill="#211D1D" fill-opacity=".2"/><path d="M250.935 1015.01c-4.907-.03-8.903 3.77-8.927 8.48-.027 4.71 3.932 8.55 8.836 8.58 4.904.02 8.903-3.78 8.928-8.49.024-4.71-3.933-8.55-8.837-8.57z" fill="#161616" fill-opacity=".2"/><path d="M250.95 1012.27c-6.471-.03-11.76 5-11.794 11.21-.03 6.21 5.205 11.29 11.673 11.32 6.468.03 11.76-4.99 11.791-11.21.033-6.21-5.202-11.29-11.67-11.32zm-.015 2.74c4.904.02 8.861 3.86 8.836 8.57-.024 4.71-4.023 8.51-8.927 8.49-4.904-.03-8.864-3.87-8.836-8.58.024-4.71 4.02-8.51 8.927-8.48z" fill="#211D1D" fill-opacity=".2"/><path d="M338.973 928.328c.015-2.712-2.262-4.922-5.086-4.936-2.827-.015-5.126 2.175-5.141 4.887-.015 2.711 2.262 4.922 5.089 4.937 2.824.012 5.123-2.176 5.138-4.888z" fill="#161616" fill-opacity=".2"/><path d="M333.899 920.652c-4.391-.02-7.98 3.395-8.004 7.612-.025 4.217 3.531 7.666 7.925 7.686 4.391.021 7.983-3.391 8.004-7.608.021-4.219-3.531-7.666-7.925-7.69zm-.012 2.739c2.824.014 5.101 2.224 5.086 4.936-.015 2.713-2.314 4.9-5.138 4.888-2.827-.014-5.104-2.225-5.089-4.937.012-2.712 2.314-4.902 5.141-4.887z" fill="#211D1D" fill-opacity=".2"/><path d="M497.895 919.679c-4.64-.02-8.42 3.572-8.445 8.029-.024 4.458 3.72 8.089 8.36 8.112 4.643.023 8.423-3.572 8.447-8.028.025-4.459-3.719-8.089-8.362-8.113z" fill="#161616" fill-opacity=".2"/><path d="M497.91 916.944c-6.204-.031-11.278 4.792-11.308 10.752-.034 5.958 4.989 10.83 11.195 10.863 6.204.028 11.278-4.794 11.308-10.752.031-5.961-4.989-10.833-11.195-10.863zm-.015 2.735c4.642.024 8.386 3.655 8.362 8.113-.024 4.456-3.805 8.051-8.448 8.029-4.639-.024-8.383-3.655-8.359-8.113.024-4.456 3.805-8.049 8.445-8.029z" fill="#211D1D" fill-opacity=".2"/><path d="M740.023 1029.07c-4.048-.02-7.345 3.12-7.367 7-.021 3.89 3.243 7.06 7.291 7.08 4.048.02 7.345-3.12 7.367-7.01.021-3.88-3.243-7.05-7.291-7.07z" fill="#161616" fill-opacity=".2"/><path d="M740.035 1026.33c-5.612-.03-10.203 4.34-10.233 9.73-.024 5.39 4.518 9.8 10.13 9.82 5.614.03 10.205-4.33 10.23-9.72.03-5.4-4.513-9.8-10.127-9.83zm-.012 2.74c4.047.02 7.312 3.18 7.29 7.07-.021 3.89-3.319 7.03-7.366 7.01-4.048-.02-7.312-3.19-7.291-7.08.018-3.89 3.319-7.02 7.367-7z" fill="#211D1D" fill-opacity=".2"/><path d="M537.623 850.2c-2.973-.015-5.393 2.288-5.408 5.141-.015 2.854 2.381 5.178 5.353 5.193 2.97.015 5.39-2.286 5.405-5.141.015-2.852-2.38-5.179-5.35-5.193z" fill="#161616" fill-opacity=".2"/><path d="M537.635 847.463c-4.537-.022-8.247 3.507-8.272 7.863-.024 4.359 3.65 7.923 8.19 7.944 4.536.023 8.247-3.506 8.271-7.862.025-4.36-3.65-7.924-8.189-7.945zm-.012 2.737c2.969.013 5.365 2.341 5.35 5.193-.012 2.855-2.435 5.156-5.405 5.141-2.973-.015-5.368-2.339-5.353-5.194.015-2.852 2.435-5.155 5.408-5.14z" fill="#211D1D" fill-opacity=".2"/><path d="M643.143 391.178c-3.556-.018-6.45 2.735-6.471 6.147-.015 3.415 2.848 6.197 6.404 6.211 3.556.021 6.453-2.732 6.471-6.147.018-3.412-2.852-6.194-6.404-6.211z" fill="#161616" fill-opacity=".2"/><path d="M643.16 388.439c-5.123-.026-9.307 3.957-9.335 8.874-.027 4.917 4.118 8.935 9.237 8.961 5.12.026 9.307-3.954 9.335-8.871.027-4.916-4.118-8.938-9.237-8.964zm-.016 2.738c3.553.018 6.423 2.8 6.404 6.212-.018 3.415-2.915 6.167-6.47 6.147-3.556-.015-6.42-2.797-6.404-6.211.018-3.412 2.915-6.165 6.47-6.148z" fill="#211D1D" fill-opacity=".2"/><path d="M807.811 440.375c-2.639-.011-4.792 2.033-4.804 4.57-.015 2.534 2.113 4.599 4.752 4.613 2.642.012 4.792-2.032 4.807-4.566.012-2.537-2.117-4.602-4.755-4.617z" fill="#161616" fill-opacity=".2"/><path d="M807.827 437.639c-4.209-.02-7.649 3.249-7.674 7.291-.021 4.039 3.389 7.342 7.592 7.363 4.208.02 7.652-3.249 7.673-7.29.021-4.039-3.386-7.343-7.591-7.364zm-.016 2.736c2.639.014 4.768 2.079 4.756 4.616-.015 2.534-2.165 4.578-4.807 4.567-2.639-.015-4.767-2.08-4.752-4.614.012-2.537 2.165-4.581 4.803-4.569z" fill="#211D1D" fill-opacity=".2"/><path d="M807.609 301.554c5.682.029 10.315-4.374 10.343-9.83.027-5.459-4.552-9.906-10.236-9.936-5.685-.026-10.315 4.375-10.346 9.834-.027 5.458 4.555 9.903 10.239 9.932z" fill="#161616" fill-opacity=".2"/><path d="M807.728 279.053c-7.242-.035-13.166 5.596-13.205 12.554-.037 6.96 5.827 12.647 13.072 12.685 7.245.035 13.169-5.599 13.209-12.557.036-6.958-5.83-12.647-13.076-12.682zm-.012 2.735c5.682.029 10.264 4.476 10.236 9.935-.027 5.456-4.661 9.86-10.342 9.831-5.684-.03-10.266-4.474-10.239-9.933.03-5.459 4.661-9.859 10.345-9.833z" fill="#211D1D" fill-opacity=".2"/><path d="M971.239 369.501c-2.899-.011-5.262 2.234-5.277 5.019-.015 2.785 2.323 5.056 5.226 5.068 2.9.015 5.262-2.231 5.277-5.016.015-2.785-2.326-5.056-5.226-5.071z" fill="#161616" fill-opacity=".2"/><path d="M971.253 366.767c-4.467-.023-8.12 3.45-8.145 7.739-.021 4.29 3.596 7.801 8.063 7.821 4.466.024 8.119-3.449 8.143-7.739.022-4.29-3.592-7.801-8.061-7.821zm-.016 2.735c2.903.015 5.241 2.286 5.226 5.071-.015 2.785-2.377 5.031-5.277 5.016-2.903-.012-5.241-2.283-5.226-5.068.015-2.785 2.377-5.03 5.277-5.019z" fill="#211D1D" fill-opacity=".2"/></svg>