<svg width="918" height="807" fill="none" xmlns="http://www.w3.org/2000/svg"><path d="M1.137 355.503l109.137-6.181-88.177-51.346L.915 313.814l-.004-1.138 20.867-15.602.531-.029 89.738 52.258a.44.44 0 01.212.493.466.466 0 01-.426.342l-110.69 6.267-.006-.902zm1.122 211.049l56.638 31.214 42.776-10.972-99.502-36.591-.004-.968 101.195 37.213c.186.069.31.25.298.444a.456.456 0 01-.346.413l-44.36 11.381-.12.015-.237-.059-56.332-31.048-.006-1.042zm479.236-87.883l-4.604 21.377-109.349-34.061 113.953 12.684zm-4.25 22.412l.235-.062.222-.297 4.817-22.355-.078-.355-.326-.182-119.149-13.26a.453.453 0 00-.514.35.451.451 0 00.316.526l114.331 35.613.146.022zm371.228 237.974l-55.503 34.007-39.257-97.946 94.76 63.939zm-55.733 35.132l.25-.071 56.578-34.663.218-.372-.2-.377-96.595-65.175-.558.013a.439.439 0 00-.15.517l40.017 99.838.292.269.148.021z" fill="#F5F5F5" fill-opacity=".6"/><path d="M792.06 773.296l-169.48 2.596 129.935-101.256 39.545 98.66zm-170.827 3.517h.006l171.507-2.626.382-.197.048-.415-40.017-99.839-.316-.275-.418.087-131.49 102.467a.437.437 0 00-.144.501c.068.18.244.3.442.297zM362.005 464.882l-196.229 75.662 96.883-154.295 99.346 78.633zm-197.351 77.031l.172-.033 198.261-76.444.29-.351-.166-.415-100.374-79.448-.376-.098-.322.211-97.889 155.894.042.526.362.158z" fill="#F5F5F5" fill-opacity=".6"/><path d="M261.865 385.771l-96.592 153.826 15.434-188.679 81.158 34.853zm-97.211 156.142l.397-.217 97.889-155.894.046-.367-.256-.277-82.246-35.323-.43.023-.228.351-15.642 191.218a.447.447 0 00.324.464l.146.022z" fill="#F5F5F5" fill-opacity=".6"/><path d="M179.786 350.691L164.4 538.789l-51.984-188.645 67.37.547zm-15.132 191.222l.038-.002c.23-.02.41-.195.426-.413l15.644-191.216-.124-.342-.342-.145-68.488-.557-.374.173-.082.391 52.844 191.775a.466.466 0 00.458.336z" fill="#F5F5F5" fill-opacity=".6"/><path d="M2.167 549.237l100.95 37.121 60.321-44.568L2.039 525.18l-.004-.906 162.665 16.74a.469.469 0 01.403.327.443.443 0 01-.166.478l-61.458 45.407-.282.092-.172-.028L2.171 550.201l-.004-.964zm110.388-260.576l66.557 61.124-66.835-.543.278-60.581zm67.741 62.034c.19 0 .36-.111.432-.28l-.112-.494-68.201-62.637-.507-.088a.449.449 0 00-.284.413l-.288 62.076a.458.458 0 00.464.453l68.488.557h.008z" fill="#F5F5F5" fill-opacity=".6"/><path d="M.5 235.239l111.124 51.653.324-285.106L.007 142.676 0 141.199 112.044.177a.479.479 0 01.524-.151.45.45 0 01.318.426l-.326 287.159-.218.38-.248.071-.206-.046L.504 236.242.5 235.239z" fill="#F5F5F5" fill-opacity=".6"/><path d="M111.621 288.115l-.282 60.775-87.857-51.161 88.139-9.614zm.186 62.023l.228-.057.24-.392.284-62.077-.154-.338-.366-.111-90.028 9.819a.468.468 0 00-.406.351.447.447 0 00.216.48l89.74 52.26.246.065z" fill="#F5F5F5" fill-opacity=".6"/><path d="M.695 272.337l21.566 24.616 88.168-9.615L.503 236.242l-.004-1.005 111.796 51.968a.444.444 0 01.258.48c-.034.2-.2.35-.41.373l-90.026 9.818-.05.002-.362-.157L.703 273.746l-.008-1.409zm620.666 504.459l-104.21 29.211-3.407.017 106.226-29.777-188.433-93.151 45.525 123.107-.994.005-45.812-123.884a.438.438 0 01.134-.488l.525-.063 190.53 94.188c.17.087.27.262.252.446a.455.455 0 01-.336.389z" fill="#F5F5F5" fill-opacity=".6"/><path d="M476.07 806.208l-45.637-123.409-123.563 57.583 152.212 65.909-2.255.011-151.259-65.493a.45.45 0 01-.273-.406.449.449 0 01.261-.413l124.941-58.221.382-.011.264.264 45.919 124.18-.992.006zm-1.618-304.123l-52.003 37.618-30.546-8.767 82.549-28.851zm-51.909 38.564l.282-.09 54.699-39.569a.438.438 0 00.13-.576.478.478 0 00-.573-.207l-86.831 30.348a.451.451 0 00-.31.435.455.455 0 00.334.419l32.133 9.221.136.019z" fill="#F5F5F5" fill-opacity=".6"/><path d="M475.802 500.655l-85.124 29.749-26.958-64.66 112.082 34.911zm-85.39 30.772l.16-.026 86.831-30.347a.452.452 0 00.31-.43.456.456 0 00-.324-.423L363.056 464.59l-.486.119-.094.476 27.498 65.961a.47.47 0 00.438.281z" fill="#F5F5F5" fill-opacity=".6"/><path d="M422.092 540.54l7.875 137.069-38.898-145.972 31.023 8.903zm8.61 142.085l.068-.005a.456.456 0 00.398-.471l-8.159-141.976a.454.454 0 00-.334-.407l-32.132-9.22-.457.106-.132.436 40.292 151.198a.467.467 0 00.456.339z" fill="#F5F5F5" fill-opacity=".6"/><path d="M389.73 530.558l-222.318 10.325 195.24-75.28 27.078 64.955zm-225.077 11.355h.02l225.761-10.486.37-.207.042-.411-27.498-65.96-.25-.246-.36-.004-198.263 76.445a.45.45 0 00-.283.516.465.465 0 00.461.353z" fill="#F5F5F5" fill-opacity=".6"/><path d="M385.447 293.994l-22.891 170.158-99.268-78.573 122.159-91.585zm-22.533 171.473l.172-.031.29-.361 23.147-172.052a.438.438 0 00-.232-.447l-.522.034-123.519 92.604-.182.35.17.353 100.374 79.446.302.104z" fill="#F5F5F5" fill-opacity=".6"/><path d="M385.158 293.071l-122.03 91.486 15.726-137.291 106.304 45.805zm-122.616 92.948l.284-.096 123.523-92.603.176-.409-.272-.357-107.603-46.363-.424.019-.236.342-15.919 138.967a.455.455 0 00.239.444l.232.056z" fill="#F5F5F5" fill-opacity=".6"/><path d="M329.243 42.163l-50.985 203.314L113.413 1.101l215.83 41.062zm-50.781 204.89l.076-.006a.462.462 0 00.376-.34l51.357-204.791-.062-.346-.304-.2L112.507.008a.477.477 0 00-.478.19l-.006.498 166.041 246.15.398.207z" fill="#F5F5F5" fill-opacity=".6"/><path d="M277.834 247.93l-15.69 136.975-81.067-34.817 96.757-102.158zm-15.292 138.089l.23-.058.232-.342 15.92-138.967a.445.445 0 00-.274-.461.483.483 0 00-.538.107l-98.167 103.644-.112.396.266.319 82.249 35.323.194.039z" fill="#F5F5F5" fill-opacity=".6"/><path d="M277.057 247.412l-96.789 102.189-67.241-61.754 164.03-40.435zm-96.761 103.283h.014l.33-.146 98.166-103.644.054-.535a.473.473 0 00-.517-.204l-166.369 41.007-.336.324.13.438 68.2 62.635.328.125z" fill="#F5F5F5" fill-opacity=".6"/><path d="M277.71 246.322l-165.149 40.707.321-285.055L277.71 246.322zm-165.617 41.74l.114-.016 166.367-41.006.32-.273-.042-.409L112.808.208a.47.47 0 00-.523-.188.452.452 0 00-.338.432l-.324 287.159.18.357.29.094zm278.029 243.653l39.941 149.887-209.379-37.489 169.438-112.398zm40.58 150.91l.34-.144.114-.418-40.293-151.196-.289-.311-.43.05-170.92 113.38a.444.444 0 00-.191.465c.04.178.185.315.373.347l211.208 37.82.088.007z" fill="#F5F5F5" fill-opacity=".6"/><path d="M429.213 682.366l-123.33 57.474-85.163-94.806 208.493 37.332zm-123.45 58.481l.202-.044 124.939-58.224a.45.45 0 00.262-.465.463.463 0 00-.382-.384l-211.206-37.817a.48.48 0 00-.496.219l.054.518 86.27 96.039.357.158z" fill="#F5F5F5" fill-opacity=".6"/><path d="M388.791 531.505L219.665 643.694 165.4 541.878l223.391-10.373zm-169.296 113.3l.262-.078 170.922-113.378a.443.443 0 00.176-.516c-.066-.191-.268-.308-.466-.306l-225.761 10.485-.384.224-.01.432 54.842 102.894.301.232.118.011z" fill="#F5F5F5" fill-opacity=".6"/><path d="M304.959 740.192l-57.366 19.547-27.222-113.712 84.588 94.165zm-57.704 20.592l.154-.027 58.51-19.935.296-.31-.098-.408-86.273-96.041a.483.483 0 00-.566-.108.445.445 0 00-.246.502l27.765 115.977.23.294.228.056z" fill="#F5F5F5" fill-opacity=".6"/><path d="M219.221 645.234l27.433 114.596-138.449-11.677 111.016-102.919zm28.035 115.55l.352-.156.104-.395-27.764-115.978-.323-.331-.458.109-112.356 104.159-.116.475c.06.167.218.282.402.297l140.117 11.818.042.002z" fill="#F5F5F5" fill-opacity=".6"/><path d="M164.489 542.151l53.92 101.163-114.345-56.52 60.425-44.643zm55.005 102.654l.33-.13a.444.444 0 00.086-.524l-54.843-102.893-.314-.235-.39.083-61.457 45.406-.181.397.251.361 116.3 57.488.218.047z" fill="#F5F5F5" fill-opacity=".6"/><path d="M218.587 644.568L107.361 747.684l-47.822-148.76 159.048 45.644zM107.139 748.966l.324-.128L219.818 644.68l.128-.431-.322-.325L58.965 597.82l-.468.113-.114.452L106.69 748.65l.332.301.118.015z" fill="#F5F5F5" fill-opacity=".6"/><path d="M103.138 587.349l111.64 55.185-154.223-44.259 42.583-10.926zm116.356 57.456a.468.468 0 00.432-.282.444.444 0 00-.22-.568l-116.298-57.488-.337-.033-44.36 11.382a.456.456 0 00-.35.429.455.455 0 00.336.438l160.659 46.105.138.017zM780.41 627.49l130.356 73.308-157.314-27.232 26.958-46.076zm132.875 74.652c.194 0 .37-.115.438-.294a.44.44 0 00-.202-.545l-133.049-74.821-.358-.047-.288.214-27.514 47.027-.016.414.342.249 160.563 27.796.084.007z" fill="#F5F5F5" fill-opacity=".6"/><path d="M779.511 627.192l-26.866 45.914-53.336-61.22 80.202 15.306zm-26.788 47.155l.042-.002.366-.229 27.513-47.026.018-.409-.334-.253-82.143-15.675a.474.474 0 00-.493.211l.043.521 54.626 62.702.362.16zM520.288 357.515l.114-.016a.449.449 0 00.338-.549l-25.804-95.444a.467.467 0 00-.572-.322.448.448 0 00-.336.549l25.804 95.444a.468.468 0 00.456.338z" fill="#F5F5F5" fill-opacity=".6"/><path d="M494.15 262.186l25.423 94.035-132.244-63.152 106.821-30.883zm26.138 95.329l.294-.102.158-.463-25.804-95.444-.224-.278-.364-.038-108.423 31.345a.45.45 0 00-.332.394.441.441 0 00.258.439l134.225 64.099.212.048z" fill="#F5F5F5" fill-opacity=".6"/><path d="M519.436 358.2l-37.711 119.586-117.55-13.081L519.436 358.2zm-37.374 120.527a.465.465 0 00.446-.319l38.226-121.214a.438.438 0 00-.176-.495l-.546-.002L362.64 464.651a.44.44 0 00-.182.478.463.463 0 00.4.336l119.146 13.26.058.002z" fill="#F5F5F5" fill-opacity=".6"/><path d="M519.376 357.133L363.515 464.05l22.924-170.399 132.937 63.482zM362.914 465.467l.272-.083L520.558 357.43l.196-.401-.26-.369-134.225-64.098-.43.006-.244.34-23.149 172.052a.446.446 0 00.226.444l.242.063zm119.418 13.759l77.733 80.579-82.303-59.364 4.57-21.215zm81.621 84.4l.346-.148a.436.436 0 00-.004-.609l-81.893-84.899-.47-.127-.333.344-4.817 22.352.178.452 86.709 62.544.284.091z" fill="#F5F5F5" fill-opacity=".6"/><path d="M477.242 501.194l84.884 61.226-138.433-22.49 53.549-38.736zm86.712 62.432a.47.47 0 00.429-.273.441.441 0 00-.148-.539l-86.711-62.543h-.563l-54.704 39.568a.44.44 0 00-.17.467.455.455 0 00.376.336l141.411 22.976.08.008z" fill="#F5F5F5" fill-opacity=".6"/><path d="M562.938 563.466L431.112 681.189l-8.071-140.451 139.897 22.728zM430.702 682.625l.316-.12 133.253-119 .13-.459-.37-.315-141.412-22.976-.39.107-.156.361 8.159 141.976c.01.175.122.327.292.394l.178.032zM1.599 442.372l162.293 98.101-52.403-190.168L1.347 394.989l-.006-.976 110.282-44.741.388.012.248.29 52.844 191.774a.443.443 0 01-.174.478l-.276.087-.254-.07L1.605 443.439l-.006-1.067z" fill="#F5F5F5" fill-opacity=".6"/><path d="M2.035 524.274l160.651 16.533L1.605 443.441l-.006-1.069L164.9 541.081c.184.112.264.33.194.528a.47.47 0 01-.442.304l-.052-.002L2.039 525.18l-.004-.906zM1.34 394.013l107.77-43.721-107.967 6.113-.006-.902 110.64-6.263a.439.439 0 01.484.345.446.446 0 01-.274.519L1.347 394.989l-.006-.976zm696.533 217.631l53.284 61.161-158.602-61.516 105.318.355zm54.85 62.703l.378-.187-.02-.553-54.628-62.702-.358-.159-107.975-.365h-.004a.464.464 0 00-.458.365.448.448 0 00.284.503l162.605 63.067.176.031z" fill="#F5F5F5" fill-opacity=".6"/><path d="M751.807 674.028L621.552 775.533l-30.82-163.977 161.075 62.472zM621.233 776.813l.293-.099 131.491-102.467.168-.417-.288-.351-162.603-63.066-.472.068-.164.43 31.111 165.532.298.342.166.028z" fill="#F5F5F5" fill-opacity=".6"/><path d="M564.942 564.01l130.524 46.726-105.064-.353-25.46-46.373zm133.153 47.636a.466.466 0 00.46-.37.45.45 0 00-.298-.504l-134.139-48.02a.485.485 0 00-.518.125l-.062.507 26.166 47.657.414.24 107.975.365h.002z" fill="#F5F5F5" fill-opacity=".6"/><path d="M589.766 611.487l30.835 164.057-188.835-93.348 158-70.709zm31.467 165.326l.277-.087.182-.442-31.112-165.532-.246-.319-.414-.01-159.417 71.342-.272.4.254.409 190.53 94.19.218.049z" fill="#F5F5F5" fill-opacity=".6"/><path d="M589.475 610.623L433.196 680.56l130.629-116.654 25.65 46.717zm-158.772 72.002l.196-.042 159.418-71.344.247-.265-.03-.353-26.166-47.656-.336-.234-.399.114-133.252 118.999a.436.436 0 00-.07.582l.392.199zM2.533 617.909l55.197-19.745-55.465-30.57-.006-1.042 56.804 31.309c.16.086.25.253.236.428a.457.457 0 01-.306.385L2.537 618.869l-.004-.96zm491.951-355.838l.388-.2a.439.439 0 00-.13-.626l-108.341-69.583a.48.48 0 00-.65.125.44.44 0 00.128.624l108.343 69.583.262.077z" fill="#F5F5F5" fill-opacity=".6"/><path d="M493.394 261.464l-106.866 30.895.08-99.48 106.786 68.585zM386.06 293.417l.132-.02 108.425-31.345a.456.456 0 00.328-.365l-.204-.442L386.4 191.662l-.479-.023-.25.397-.08 100.929.188.361.281.091z" fill="#F5F5F5" fill-opacity=".6"/><path d="M385.672 192.785l-.08 99.485-106.062-45.701 106.142-53.784zm.39 100.632l.253-.073.212-.379.082-100.929-.226-.386-.461-.011-107.684 54.565-.249.413.277.396 107.602 46.363.194.041z" fill="#F5F5F5" fill-opacity=".6"/><path d="M385.562 191.821l-106.404 53.917 50.745-202.36 55.659 148.443zm-107.1 55.232l.216-.054 107.681-54.563a.444.444 0 00.224-.553L330.257 41.658c-.07-.186-.268-.322-.466-.296a.462.462 0 00-.432.344l-51.357 204.79.168.463.292.094zM2.865 680.371l103.431 67.055-47.648-148.215-55.847 69.013-.008-1.46 55.67-68.79.453-.165.364.309 48.306 150.265a.442.442 0 01-.168.495l-.278.088-.264-.076L2.871 681.462l-.006-1.091z" fill="#F5F5F5" fill-opacity=".6"/><path d="M3.355 772.811l102.647-24.488L2.871 681.462l-.006-1.091 104.534 67.769a.45.45 0 01.2.456.464.464 0 01-.348.357L3.361 773.738l-.006-.927zm-.563-106.046l54.656-67.537-54.912 19.641-.004-.96 56.135-20.079a.48.48 0 01.542.155l-.006.542L2.8 668.224l-.008-1.459zm259.714-287.163c3.433-.017 6.23 2.64 6.248 5.937.018 3.296-2.751 5.982-6.184 5.998-3.431.017-6.23-2.642-6.248-5.937-.016-3.297 2.751-5.983 6.184-5.998z" fill="#F5F5F5" fill-opacity=".6"/><path d="M262.496 377.799c4.462-.023 8.111 3.445 8.135 7.73.02 4.285-3.589 7.789-8.051 7.811-4.462.021-8.109-3.447-8.133-7.732-.024-4.284 3.589-7.788 8.049-7.809zm.01 1.803c-3.433.015-6.2 2.701-6.184 5.998.018 3.295 2.817 5.954 6.248 5.937 3.433-.016 6.202-2.702 6.184-5.998-.018-3.297-2.815-5.954-6.248-5.937z" fill="#211D1D" fill-opacity=".2"/><path d="M177.63 350.257c-.008-1.411 1.18-2.561 2.647-2.569 1.472-.005 2.669 1.133 2.675 2.544.008 1.412-1.177 2.562-2.647 2.569-1.467.006-2.667-1.131-2.675-2.544z" fill="#F5F5F5" fill-opacity=".6"/><path d="M180.267 345.887c2.503-.013 4.55 1.932 4.564 4.336.012 2.404-2.013 4.368-4.516 4.379-2.503.014-4.549-1.931-4.561-4.335-.012-2.402 2.012-4.368 4.513-4.38zm.01 1.801c-1.468.008-2.655 1.158-2.647 2.569.008 1.413 1.207 2.55 2.675 2.544 1.469-.007 2.655-1.157 2.647-2.569-.006-1.411-1.204-2.549-2.675-2.544z" fill="#211D1D" fill-opacity=".2"/><path d="M112.124 293.491c-3.383.016-6.138-2.603-6.156-5.85-.016-3.25 2.711-5.894 6.092-5.911 3.385-.018 6.14 2.601 6.156 5.85.018 3.248-2.709 5.894-6.092 5.911z" fill="#F5F5F5" fill-opacity=".6"/><path d="M112.052 279.927c4.41-.021 8.017 3.408 8.041 7.643.022 4.238-3.549 7.701-7.961 7.724-4.411.02-8.017-3.408-8.039-7.645-.024-4.235 3.546-7.699 7.959-7.722zm.008 1.803c-3.381.017-6.108 2.661-6.092 5.911.018 3.247 2.773 5.866 6.156 5.85 3.382-.017 6.109-2.662 6.091-5.911-.016-3.249-2.771-5.868-6.155-5.85z" fill="#211D1D" fill-opacity=".2"/><path d="M390.381 525.664c3.055-.015 5.546 2.352 5.56 5.286.016 2.935-2.447 5.325-5.504 5.341-3.054.015-5.545-2.352-5.561-5.287-.016-2.934 2.451-5.325 5.505-5.34z" fill="#F5F5F5" fill-opacity=".6"/><path d="M390.372 523.861c4.084-.019 7.427 3.156 7.447 7.081.022 3.923-3.287 7.131-7.371 7.15-4.086.021-7.427-3.155-7.447-7.079-.022-3.923 3.285-7.13 7.371-7.152zm.01 1.803c-3.055.015-5.522 2.406-5.506 5.34.016 2.935 2.507 5.302 5.562 5.287 3.057-.016 5.52-2.406 5.504-5.341-.014-2.934-2.505-5.301-5.56-5.286z" fill="#211D1D" fill-opacity=".2"/><path d="M219.475 641.043c1.905-.008 3.456 1.467 3.466 3.296.01 1.829-1.525 3.32-3.432 3.329-1.906.01-3.457-1.466-3.467-3.296-.01-1.828 1.527-3.319 3.433-3.329z" fill="#F5F5F5" fill-opacity=".6"/><path d="M219.465 639.24c2.937-.014 5.338 2.269 5.354 5.09.012 2.82-2.363 5.126-5.3 5.141-2.935.014-5.338-2.269-5.352-5.089-.016-2.821 2.361-5.126 5.298-5.142zm.01 1.803c-1.905.009-3.442 1.501-3.432 3.329.01 1.83 1.561 3.306 3.466 3.296 1.908-.009 3.441-1.501 3.433-3.329-.01-1.829-1.561-3.304-3.467-3.296z" fill="#211D1D" fill-opacity=".2"/><path d="M103.159 580.457c3.689-.018 6.694 2.837 6.714 6.379.018 3.543-2.957 6.428-6.646 6.445-3.686.02-6.691-2.837-6.711-6.38-.018-3.542 2.955-6.426 6.643-6.444z" fill="#F5F5F5" fill-opacity=".6"/><path d="M103.148 578.653c4.718-.023 8.575 3.645 8.599 8.174.024 4.53-3.793 8.234-8.511 8.257-4.716.023-8.575-3.644-8.599-8.173-.022-4.529 3.795-8.233 8.511-8.258zm.01 1.803c-3.688.019-6.661 2.903-6.643 6.445.02 3.543 3.025 6.4 6.711 6.38 3.689-.017 6.664-2.902 6.646-6.445-.02-3.542-3.025-6.397-6.714-6.38z" fill="#211D1D" fill-opacity=".2"/><path d="M913.269 699.055c1.518-.008 2.753 1.167 2.761 2.622.008 1.458-1.215 2.644-2.733 2.652-1.517.008-2.753-1.167-2.761-2.622-.008-1.458 1.216-2.645 2.733-2.652z" fill="#F5F5F5" fill-opacity=".6"/><path d="M913.26 697.251c2.549-.012 4.634 1.971 4.646 4.419.014 2.445-2.049 4.449-4.598 4.461-2.549.014-4.634-1.969-4.648-4.417-.012-2.448 2.051-4.449 4.6-4.463zm.01 1.803c-1.517.008-2.741 1.195-2.733 2.652.008 1.455 1.244 2.631 2.761 2.623 1.517-.008 2.741-1.195 2.733-2.652-.008-1.455-1.244-2.63-2.761-2.623z" fill="#211D1D" fill-opacity=".2"/><path d="M780.212 622.604c2.453-.012 4.453 1.889 4.465 4.245.014 2.355-1.966 4.275-4.419 4.287-2.453.012-4.452-1.89-4.464-4.243-.012-2.356 1.965-4.276 4.418-4.289z" fill="#F5F5F5" fill-opacity=".6"/><path d="M780.204 620.802c3.483-.017 6.332 2.69 6.35 6.037.018 3.346-2.803 6.081-6.286 6.099-3.485.018-6.334-2.691-6.352-6.038-.018-3.345 2.803-6.081 6.288-6.098zm.008 1.802c-2.453.013-4.43 1.933-4.418 4.289.012 2.353 2.011 4.254 4.464 4.243 2.453-.012 4.432-1.932 4.418-4.287-.012-2.356-2.011-4.257-4.464-4.245z" fill="#211D1D" fill-opacity=".2"/><path d="M520.273 354.489c1.481-.008 2.687 1.14 2.695 2.561.008 1.423-1.188 2.582-2.667 2.59-1.482.006-2.689-1.14-2.697-2.563-.008-1.423 1.187-2.581 2.669-2.588z" fill="#F5F5F5" fill-opacity=".6"/><path d="M520.261 352.686c2.514-.011 4.569 1.943 4.581 4.356.014 2.414-2.021 4.388-4.535 4.399-2.513.012-4.568-1.941-4.582-4.354-.012-2.414 2.023-4.388 4.536-4.401zm.01 1.803c-1.481.008-2.677 1.165-2.669 2.588.008 1.423 1.216 2.569 2.697 2.563 1.48-.008 2.675-1.167 2.667-2.59-.008-1.421-1.213-2.569-2.695-2.561z" fill="#211D1D" fill-opacity=".2"/><path d="M362.881 459.147c3.376-.018 6.127 2.597 6.145 5.84.016 3.243-2.707 5.885-6.081 5.9-3.377.017-6.128-2.598-6.146-5.84-.018-3.243 2.707-5.885 6.082-5.9z" fill="#F5F5F5" fill-opacity=".6"/><path d="M362.869 457.344c4.407-.021 8.009 3.404 8.031 7.634.024 4.231-3.542 7.691-7.949 7.712-4.404.021-8.007-3.404-8.029-7.634-.024-4.231 3.543-7.691 7.947-7.712zm.01 1.803c-3.374.015-6.099 2.657-6.081 5.9.018 3.243 2.769 5.858 6.145 5.84 3.375-.015 6.098-2.657 6.082-5.9-.018-3.243-2.769-5.858-6.146-5.84z" fill="#211D1D" fill-opacity=".2"/><path d="M482.075 481.205c-1.684.01-3.057-1.296-3.065-2.912-.008-1.617 1.349-2.936 3.035-2.944 1.685-.009 3.056 1.296 3.064 2.913.008 1.618-1.349 2.936-3.034 2.943z" fill="#F5F5F5" fill-opacity=".6"/><path d="M482.035 473.546c2.715-.013 4.938 2.099 4.95 4.706.014 2.609-2.183 4.742-4.9 4.756-2.715.013-4.936-2.099-4.95-4.706-.014-2.609 2.183-4.742 4.9-4.756zm.01 1.803c-1.685.008-3.045 1.327-3.035 2.943.008 1.617 1.382 2.922 3.065 2.913 1.685-.008 3.043-1.325 3.035-2.943-.008-1.617-1.379-2.923-3.065-2.913z" fill="#211D1D" fill-opacity=".2"/><path d="M477.227 497.319c1.903-.009 3.452 1.465 3.462 3.295.01 1.828-1.525 3.318-3.428 3.327-1.904.01-3.455-1.465-3.465-3.294-.01-1.828 1.525-3.318 3.431-3.328z" fill="#F5F5F5" fill-opacity=".6"/><path d="M477.217 495.519c2.933-.016 5.336 2.267 5.35 5.086.014 2.818-2.361 5.124-5.296 5.137-2.937.016-5.336-2.265-5.352-5.086-.016-2.818 2.361-5.124 5.298-5.137zm.01 1.8c-1.905.01-3.44 1.5-3.43 3.328.01 1.829 1.561 3.304 3.464 3.294 1.904-.009 3.439-1.499 3.429-3.327-.01-1.83-1.559-3.302-3.463-3.295z" fill="#211D1D" fill-opacity=".2"/><path d="M422.528 537.606c1.49-.008 2.705 1.148 2.713 2.579.008 1.432-1.195 2.597-2.685 2.605-1.489.008-2.705-1.148-2.713-2.579-.006-1.43 1.196-2.597 2.685-2.605z" fill="#F5F5F5" fill-opacity=".6"/><path d="M422.517 535.805c2.523-.011 4.586 1.949 4.598 4.37.014 2.423-2.027 4.404-4.55 4.416-2.523.014-4.584-1.949-4.598-4.37-.014-2.423 2.029-4.404 4.55-4.416zm.01 1.801c-1.49.008-2.691 1.175-2.685 2.605.008 1.431 1.223 2.587 2.713 2.579 1.489-.008 2.693-1.175 2.685-2.605-.008-1.431-1.224-2.587-2.713-2.579z" fill="#211D1D" fill-opacity=".2"/><path d="M164.625 536.957c2.591-.013 4.705 1.995 4.717 4.481.012 2.489-2.076 4.516-4.667 4.529-2.591.014-4.704-1.995-4.716-4.482-.014-2.487 2.075-4.516 4.666-4.528z" fill="#F5F5F5" fill-opacity=".6"/><path d="M164.615 535.154c3.623-.017 6.584 2.798 6.604 6.277.018 3.477-2.913 6.32-6.534 6.338-3.622.019-6.583-2.798-6.601-6.275-.02-3.477 2.911-6.323 6.531-6.34zm.01 1.803c-2.591.012-4.68 2.041-4.666 4.528.012 2.487 2.125 4.496 4.716 4.482 2.591-.013 4.678-2.04 4.666-4.529-.012-2.486-2.125-4.494-4.716-4.481z" fill="#211D1D" fill-opacity=".2"/><path d="M111.777 344.509c2.979-.015 5.406 2.292 5.42 5.151.014 2.861-2.387 5.192-5.366 5.207-2.977.014-5.404-2.292-5.42-5.153-.016-2.861 2.387-5.19 5.366-5.205z" fill="#F5F5F5" fill-opacity=".6"/><path d="M111.767 342.706c4.008-.019 7.285 3.097 7.307 6.947.02 3.849-3.225 6.996-7.233 7.015-4.009.019-7.285-3.095-7.305-6.944-.02-3.85 3.222-6.999 7.231-7.018zm.01 1.803c-2.979.015-5.382 2.344-5.366 5.205.016 2.861 2.443 5.167 5.42 5.153 2.979-.015 5.38-2.346 5.366-5.207-.014-2.859-2.441-5.166-5.42-5.151z" fill="#211D1D" fill-opacity=".2"/><path d="M752.691 668.282c3.23-.016 5.861 2.484 5.877 5.586.018 3.101-2.589 5.628-5.818 5.645-3.228.016-5.861-2.487-5.877-5.587-.016-3.103 2.589-5.629 5.818-5.644z" fill="#F5F5F5" fill-opacity=".6"/><path d="M752.681 666.479c4.261-.021 7.743 3.291 7.765 7.38.02 4.092-3.427 7.434-7.685 7.457-4.258.019-7.743-3.29-7.763-7.382-.022-4.09 3.425-7.434 7.683-7.455zm.01 1.803c-3.229.015-5.834 2.542-5.818 5.644.016 3.101 2.649 5.603 5.878 5.588 3.229-.018 5.836-2.544 5.818-5.646-.016-3.102-2.647-5.602-5.878-5.586z" fill="#211D1D" fill-opacity=".2"/><path d="M694.726 611.212c-.01-1.786 1.49-3.241 3.349-3.25 1.862-.01 3.375 1.432 3.385 3.218.01 1.785-1.49 3.24-3.351 3.25-1.859.008-3.373-1.432-3.383-3.218z" fill="#F5F5F5" fill-opacity=".6"/><path d="M698.067 606.159c2.891-.014 5.254 2.235 5.27 5.011.016 2.776-2.325 5.047-5.218 5.061-2.891.013-5.256-2.233-5.27-5.009-.014-2.778 2.325-5.048 5.218-5.063zm.008 1.803c-1.859.009-3.359 1.464-3.349 3.25.01 1.786 1.524 3.226 3.383 3.218 1.861-.01 3.361-1.465 3.351-3.25-.008-1.786-1.524-3.228-3.385-3.218z" fill="#211D1D" fill-opacity=".2"/><path d="M590.091 605.517c3.055-.013 5.544 2.352 5.56 5.286.016 2.936-2.449 5.326-5.504 5.342-3.056.015-5.546-2.352-5.562-5.286-.016-2.936 2.45-5.326 5.506-5.342z" fill="#F5F5F5" fill-opacity=".6"/><path d="M590.082 603.717c4.085-.021 7.425 3.154 7.445 7.079.022 3.922-3.284 7.13-7.371 7.152-4.084.018-7.425-3.157-7.445-7.079-.02-3.925 3.285-7.133 7.371-7.152zm.01 1.8c-3.057.016-5.522 2.406-5.506 5.342.016 2.934 2.505 5.301 5.562 5.286 3.055-.016 5.52-2.406 5.504-5.342-.016-2.934-2.505-5.299-5.56-5.286z" fill="#211D1D" fill-opacity=".2"/><path d="M430.674 677.539c2.665-.013 4.836 2.053 4.85 4.612.014 2.56-2.135 4.645-4.8 4.658-2.665.013-4.836-2.052-4.85-4.612-.014-2.559 2.135-4.644 4.8-4.658z" fill="#F5F5F5" fill-opacity=".6"/><path d="M430.667 675.737c3.694-.018 6.717 2.855 6.737 6.404.016 3.549-2.975 6.452-6.669 6.469-3.697.019-6.72-2.853-6.736-6.403-.02-3.55 2.971-6.451 6.668-6.47zm.008 1.802c-2.665.014-4.814 2.099-4.8 4.658.014 2.56 2.185 4.625 4.85 4.612 2.665-.013 4.814-2.098 4.8-4.658-.012-2.561-2.185-4.625-4.85-4.612z" fill="#211D1D" fill-opacity=".2"/><path d="M563.934 559.773c1.958-.01 3.551 1.506 3.561 3.384.01 1.88-1.567 3.41-3.525 3.42-1.955.009-3.548-1.506-3.558-3.385-.01-1.878 1.567-3.41 3.522-3.419z" fill="#F5F5F5" fill-opacity=".6"/><path d="M563.926 557.971c2.987-.015 5.43 2.309 5.446 5.177.016 2.87-2.403 5.216-5.392 5.23-2.987.015-5.43-2.308-5.446-5.176-.016-2.871 2.403-5.217 5.392-5.231zm.008 1.802c-1.955.009-3.533 1.541-3.523 3.419.008 1.879 1.604 3.394 3.559 3.385 1.957-.01 3.535-1.54 3.525-3.42-.01-1.878-1.604-3.394-3.561-3.384z" fill="#211D1D" fill-opacity=".2"/><path d="M494.461 257.552c2.341-.012 4.247 1.8 4.261 4.047.01 2.248-1.876 4.08-4.217 4.089-2.341.014-4.248-1.799-4.26-4.047-.012-2.246 1.877-4.078 4.216-4.089z" fill="#F5F5F5" fill-opacity=".6"/><path d="M494.45 255.749c3.373-.018 6.128 2.605 6.146 5.842.018 3.237-2.711 5.883-6.082 5.9-3.371.017-6.128-2.603-6.146-5.84-.018-3.237 2.711-5.885 6.082-5.902zm.01 1.802c-2.339.012-4.228 1.844-4.216 4.09.012 2.248 1.919 4.061 4.26 4.047 2.341-.009 4.226-1.841 4.216-4.089-.012-2.247-1.919-4.059-4.26-4.048z" fill="#211D1D" fill-opacity=".2"/><path d="M386.043 289.943c1.738-.007 3.155 1.338 3.163 3.009.01 1.668-1.391 3.028-3.129 3.037-1.739.008-3.155-1.338-3.165-3.006-.008-1.671 1.394-3.03 3.131-3.04z" fill="#F5F5F5" fill-opacity=".6"/><path d="M386.033 288.142c2.771-.013 5.036 2.139 5.052 4.8.014 2.659-2.231 4.835-4.998 4.848-2.771.014-5.038-2.139-5.052-4.8-.014-2.659 2.229-4.834 4.998-4.848zm.01 1.801c-1.738.01-3.139 1.369-3.131 3.04.01 1.668 1.425 3.014 3.165 3.006 1.737-.009 3.139-1.369 3.129-3.037-.008-1.67-1.426-3.016-3.163-3.009z" fill="#211D1D" fill-opacity=".2"/><path d="M386.175 198.543c-3.74.019-6.791-2.88-6.809-6.472-.018-3.594 2.997-6.522 6.739-6.541 3.743-.018 6.792 2.879 6.812 6.474.018 3.594-2.999 6.52-6.742 6.539z" fill="#F5F5F5" fill-opacity=".6"/><path d="M386.097 183.728c4.768-.023 8.669 3.685 8.695 8.266.024 4.583-3.837 8.327-8.607 8.352-4.77.023-8.671-3.687-8.697-8.268-.024-4.581 3.839-8.326 8.609-8.35zm.008 1.801c-3.74.02-6.757 2.948-6.739 6.542.018 3.592 3.069 6.491 6.809 6.472 3.743-.019 6.76-2.945 6.742-6.539-.02-3.595-3.069-6.492-6.812-6.475z" fill="#211D1D" fill-opacity=".2"/><path d="M278.441 243.28c1.91-.007 3.465 1.471 3.475 3.304.01 1.834-1.529 3.33-3.441 3.337-1.909.01-3.464-1.468-3.474-3.302-.01-1.834 1.531-3.329 3.44-3.339z" fill="#F5F5F5" fill-opacity=".6"/><path d="M278.432 241.479c2.941-.015 5.346 2.272 5.362 5.096.014 2.824-2.367 5.136-5.308 5.149-2.941.016-5.346-2.271-5.362-5.095-.014-2.825 2.365-5.136 5.308-5.15zm.01 1.801c-1.911.01-3.451 1.505-3.441 3.339.01 1.834 1.566 3.312 3.475 3.302 1.911-.007 3.451-1.503 3.441-3.336-.01-1.834-1.566-3.312-3.475-3.305z" fill="#211D1D" fill-opacity=".2"/><path d="M58.809 593.957c2.467-.011 4.48 1.901 4.492 4.272.012 2.372-1.98 4.303-4.449 4.316-2.467.012-4.48-1.9-4.492-4.272-.014-2.37 1.977-4.302 4.449-4.316z" fill="#F5F5F5" fill-opacity=".6"/><path d="M58.799 592.156c3.499-.017 6.36 2.704 6.378 6.064.02 3.361-2.813 6.11-6.314 6.127-3.499.017-6.362-2.704-6.38-6.065-.018-3.36 2.815-6.108 6.316-6.126zm.01 1.801c-2.471.013-4.462 1.946-4.448 4.316.012 2.372 2.025 4.284 4.492 4.272 2.469-.013 4.46-1.944 4.448-4.316-.012-2.371-2.025-4.283-4.492-4.272z" fill="#211D1D" fill-opacity=".2"/></svg>