<svg width="975" height="1225" viewBox="0 0 975 1225" fill="none" xmlns="http://www.w3.org/2000/svg">
<path d="M662.835 727.017L669.828 759.485L835.91 707.753L662.835 727.017ZM669.291 761.057L668.932 760.963L668.595 760.511L661.28 726.559L661.399 726.02L661.894 725.743L842.861 705.604C843.246 705.549 843.562 705.794 843.641 706.135C843.717 706.482 843.51 706.826 843.161 706.934L669.512 761.025L669.291 761.057Z" fill="#161616" fill-opacity="0.2"/>
<path d="M105.458 1122.5L189.758 1174.15L249.383 1025.39L105.458 1122.5ZM190.107 1175.86L189.727 1175.75L103.794 1123.1L103.463 1122.54L103.767 1121.97L250.479 1022.98L251.326 1023C251.575 1023.18 251.666 1023.5 251.554 1023.78L190.775 1175.42L190.331 1175.83L190.107 1175.86Z" fill="#161616" fill-opacity="0.2"/>
<path d="M191.14 1174.51L448.551 1178.45L251.202 1024.66L191.14 1174.51ZM450.598 1179.85L450.589 1179.85L190.098 1175.86L189.518 1175.56L189.445 1174.93L250.224 1023.29L250.704 1022.87L251.339 1023.01L451.05 1178.64C451.284 1178.82 451.372 1179.13 451.269 1179.4C451.165 1179.67 450.898 1179.85 450.598 1179.85Z" fill="#161616" fill-opacity="0.2"/>
<path d="M844.319 706.077L1142.36 820.995L995.21 586.647L844.319 706.077ZM1144.06 823.075L1143.8 823.025L842.677 706.92L842.236 706.386L842.488 705.756L994.94 585.087L995.51 584.939L995.999 585.259L1144.68 822.036L1144.61 822.835L1144.06 823.075Z" fill="#161616" fill-opacity="0.2"/>
<path d="M450.402 1179.82L608.68 1224.19L613.854 1224.21L452.515 1178.99L738.713 1037.51L669.568 1224.49L671.078 1224.5L740.659 1036.34C740.756 1036.07 740.675 1035.78 740.456 1035.59L739.657 1035.5L450.274 1178.55C450.016 1178.69 449.865 1178.95 449.892 1179.23C449.919 1179.51 450.123 1179.74 450.402 1179.82Z" fill="#161616" fill-opacity="0.2"/>
<path d="M671.075 1224.49L740.39 1037.06L928.062 1124.52L696.877 1224.62L700.302 1224.64L930.038 1125.16C930.29 1125.05 930.451 1124.81 930.454 1124.55C930.46 1124.28 930.303 1124.04 930.057 1123.92L740.293 1035.49L739.713 1035.47L739.312 1035.88L669.569 1224.49L671.075 1224.49Z" fill="#161616" fill-opacity="0.2"/>
<path d="M673.532 762.582L752.515 819.718L798.91 806.403L673.532 762.582ZM752.372 821.155L751.944 821.019L668.865 760.92C668.582 760.716 668.497 760.346 668.667 760.045C668.834 759.748 669.208 759.614 669.539 759.73L801.421 805.823C801.709 805.922 801.9 806.193 801.891 806.485C801.882 806.779 801.676 807.039 801.384 807.12L752.578 821.126L752.372 821.155Z" fill="#161616" fill-opacity="0.2"/>
<path d="M671.483 760.409L800.772 805.594L841.716 707.386L671.483 760.409ZM801.176 807.148L800.933 807.108L669.051 761.016C668.765 760.917 668.574 760.651 668.58 760.363C668.586 760.068 668.784 759.811 669.072 759.721L842.724 705.633L843.462 705.814L843.605 706.537L801.841 806.72C801.728 806.985 801.458 807.152 801.176 807.148Z" fill="#161616" fill-opacity="0.2"/>
<path d="M753.059 820.988L741.099 1029.17L800.177 807.466L753.059 820.988ZM739.981 1036.79L739.878 1036.78C739.517 1036.73 739.252 1036.42 739.274 1036.07L751.666 820.431C751.678 820.145 751.884 819.898 752.173 819.813L800.976 805.81L801.671 805.97L801.871 806.632L740.674 1036.28C740.595 1036.58 740.303 1036.79 739.981 1036.79Z" fill="#161616" fill-opacity="0.2"/>
<path d="M802.21 805.829L1139.87 821.511L843.336 707.173L802.21 805.829ZM1144.06 823.075L1144.03 823.075L801.141 807.149L800.579 806.834L800.516 806.21L842.28 706.027L842.659 705.654L843.206 705.648L1144.33 821.756C1144.66 821.879 1144.84 822.211 1144.77 822.538C1144.69 822.853 1144.4 823.077 1144.06 823.075Z" fill="#161616" fill-opacity="0.2"/>
<path d="M808.716 446.528L843.484 704.969L994.257 585.63L808.716 446.528ZM842.941 706.966L842.68 706.92L842.239 706.372L807.083 445.053C807.043 444.779 807.183 444.51 807.435 444.373L808.228 444.426L995.833 585.076L996.109 585.607L995.851 586.143L843.4 706.809L842.941 706.966Z" fill="#161616" fill-opacity="0.2"/>
<path d="M809.156 445.126L994.499 584.078L970.614 375.556L809.156 445.126ZM995.389 586.298L994.957 586.152L807.346 445.505L807.079 444.884L807.492 444.341L970.923 373.923L971.567 373.952L971.925 374.471L996.105 585.539C996.132 585.814 995.99 586.079 995.741 586.213L995.389 586.298Z" fill="#161616" fill-opacity="0.2"/>
<path d="M894.081 64.0389L971.518 372.838L1221.89 1.67196L894.081 64.0389ZM971.209 375.232L971.093 375.223C970.811 375.177 970.589 374.972 970.522 374.707L892.521 63.6627L892.615 63.1378L893.076 62.8345L1223.27 0.0126937C1223.54 -0.0397965 1223.84 0.0739425 1223.99 0.30139L1224 1.05664L971.813 374.917L971.209 375.232Z" fill="#161616" fill-opacity="0.2"/>
<path d="M972.163 376.565L995.993 584.606L1119.12 531.725L972.163 376.565ZM995.389 586.298L995.04 586.21L994.688 585.691L970.508 374.623C970.471 374.325 970.641 374.045 970.924 373.923C971.2 373.803 971.534 373.867 971.741 374.086L1120.84 531.504L1121.01 532.105L1120.61 532.589L995.683 586.239L995.389 586.298Z" fill="#161616" fill-opacity="0.2"/>
<path d="M973.343 375.777L1120.35 530.984L1222.48 437.19L973.343 375.777ZM1120.31 532.646L1120.29 532.646L1119.79 532.425L970.686 375.007L970.605 374.193C970.768 373.937 971.081 373.805 971.391 373.884L1224.08 436.167L1224.59 436.659L1224.39 437.324L1120.81 532.457L1120.31 532.646Z" fill="#161616" fill-opacity="0.2"/>
<path d="M972.349 374.121L1223.18 435.949L1222.69 2.99892L972.349 374.121ZM1223.89 437.517L1223.72 437.494L971.038 375.212L970.552 374.798L970.616 374.176L1222.81 0.316123C1222.97 0.0595008 1223.3 -0.0542076 1223.6 0.0303566C1223.91 0.114921 1224.12 0.380271 1224.12 0.686485L1224.61 436.832L1224.33 437.375L1223.89 437.517Z" fill="#161616" fill-opacity="0.2"/>
<path d="M801.616 807.585L740.953 1035.24L1058.96 978.298L801.616 807.585ZM739.981 1036.79L739.465 1036.57L739.292 1035.94L800.49 806.297L800.93 805.824L801.583 805.901L1061.18 978.105C1061.42 978.26 1061.53 978.54 1061.47 978.811C1061.41 979.083 1061.19 979.29 1060.9 979.339L740.115 1036.78L739.981 1036.79Z" fill="#161616" fill-opacity="0.2"/>
<path d="M742.244 1036.4L929.561 1123.69L1058.91 979.698L742.244 1036.4ZM929.743 1125.22L929.436 1125.15L739.675 1036.72C739.399 1036.59 739.238 1036.31 739.277 1036.02C739.32 1035.72 739.551 1035.49 739.857 1035.43L1060.64 977.996C1060.94 977.943 1061.25 978.074 1061.4 978.328L1061.31 979.115L930.286 1124.98L929.743 1125.22Z" fill="#161616" fill-opacity="0.2"/>
<path d="M803.637 807.267L1060.51 977.663L1142.93 823.021L803.637 807.267ZM1060.77 979.351L1060.37 979.233L800.771 807.029C800.509 806.855 800.4 806.534 800.503 806.246C800.604 805.957 800.91 805.779 801.211 805.782L1144.1 821.707L1144.69 822.047L1144.7 822.704L1061.41 978.981L1060.95 979.334L1060.77 979.351Z" fill="#161616" fill-opacity="0.2"/>
<path d="M930.963 1124.23L1018.09 1153.92L1059.44 981.206L930.963 1124.23ZM1018.61 1155.5L1018.37 1155.46L929.505 1125.18L929.056 1124.71L929.205 1124.09L1060.24 978.223C1060.45 977.983 1060.8 977.92 1061.1 978.059C1061.39 978.199 1061.54 978.514 1061.47 978.821L1019.3 1154.97L1018.95 1155.42L1018.61 1155.5Z" fill="#161616" fill-opacity="0.2"/>
<path d="M208.834 953.051L10.8438 1064.39L249.778 1023.03L208.834 953.051ZM7.0178 1066.44C6.72326 1066.44 6.45603 1066.26 6.35279 1065.99C6.23133 1065.68 6.3619 1065.33 6.65948 1065.16L208.739 951.52L209.283 951.449L209.72 951.774L251.509 1023.2L251.533 1023.83L251.014 1024.21L7.14531 1066.42L7.0178 1066.44Z" fill="#161616" fill-opacity="0.2"/>
<path d="M210.201 952.599L251.006 1022.33L332.014 929.352L210.201 952.599ZM250.887 1024.22L250.824 1024.22L250.268 1023.87L208.479 952.444L208.452 951.823L208.959 951.438L333.72 927.631C334.012 927.576 334.319 927.701 334.47 927.952L334.404 928.742L251.437 1023.98L250.887 1024.22Z" fill="#161616" fill-opacity="0.2"/>
<path d="M603.914 543.004L603.741 542.981C603.358 542.887 603.13 542.514 603.227 542.147L642.42 397.184C642.517 396.819 642.903 396.595 643.288 396.694C643.668 396.787 643.899 397.16 643.798 397.528L604.606 542.491C604.524 542.8 604.233 543.004 603.914 543.004Z" fill="#161616" fill-opacity="0.2"/>
<path d="M643.614 398.216L605.002 541.039L805.858 445.122L643.614 398.216ZM603.915 543.004L603.468 542.85L603.229 542.147L642.421 397.184L642.761 396.761L643.314 396.703L807.99 444.311C808.269 444.39 808.473 444.629 808.494 444.909C808.521 445.186 808.363 445.454 808.102 445.577L604.237 542.931L603.915 543.004Z" fill="#161616" fill-opacity="0.2"/>
<path d="M605.21 544.046L662.488 725.676L841.026 705.808L605.21 544.046ZM661.975 727.105C661.668 727.105 661.389 726.912 661.298 726.621L603.24 542.518C603.151 542.238 603.258 541.934 603.507 541.765L604.336 541.762L843.358 705.727C843.598 705.89 843.707 706.179 843.634 706.453C843.561 706.73 843.318 706.928 843.027 706.963L662.063 727.102L661.975 727.105Z" fill="#161616" fill-opacity="0.2"/>
<path d="M605.301 542.425L842.028 704.815L807.211 446.007L605.301 542.425ZM842.942 706.967L842.529 706.842L603.507 542.877L603.209 542.268L603.604 541.708L807.469 444.353L808.122 444.362L808.493 444.878L843.652 706.197C843.689 706.465 843.552 706.731 843.309 706.871L842.942 706.967Z" fill="#161616" fill-opacity="0.2"/>
<path d="M661.563 727.863L543.5 850.249L668.504 760.086L661.563 727.863ZM537.594 856.053L537.069 855.827C536.82 855.562 536.823 855.16 537.075 854.903L661.456 725.956L662.17 725.763L662.677 726.285L669.992 760.235L669.722 760.92L538.025 855.915L537.594 856.053Z" fill="#161616" fill-opacity="0.2"/>
<path d="M669.295 761.229L540.37 854.221L750.628 820.062L669.295 761.229ZM537.595 856.053C537.313 856.049 537.055 855.892 536.942 855.638C536.812 855.347 536.906 855.012 537.167 854.819L668.867 759.826L669.723 759.826L752.808 819.925C753.033 820.088 753.136 820.368 753.066 820.634C753.002 820.899 752.775 821.099 752.495 821.144L537.716 856.04L537.595 856.053Z" fill="#161616" fill-opacity="0.2"/>
<path d="M539.137 855.81L739.358 1034.61L751.617 821.289L539.137 855.81ZM739.981 1036.79L739.501 1036.61L537.111 855.868L536.914 855.17L537.476 854.693L752.258 819.796L752.85 819.958L753.086 820.508L740.695 1036.15C740.679 1036.41 740.509 1036.64 740.251 1036.74L739.981 1036.79Z" fill="#161616" fill-opacity="0.2"/>
<path d="M334.193 928.984L253.264 1021.88L494.154 928.445L334.193 928.984ZM250.886 1024.22L250.313 1023.94L250.343 1023.1L333.313 927.862L333.856 927.619L497.852 927.066L497.858 927.066C498.195 927.068 498.49 927.298 498.554 927.619C498.617 927.941 498.438 928.261 498.122 928.384L251.154 1024.17L250.886 1024.22Z" fill="#161616" fill-opacity="0.2"/>
<path d="M252.277 1023.74L450.112 1177.9L496.923 928.85L252.277 1023.74ZM450.598 1179.85L450.151 1179.7L250.44 1024.07L250.185 1023.43L250.622 1022.9L497.588 927.115L498.304 927.218L498.553 927.87L451.302 1179.29L450.85 1179.81L450.598 1179.85Z" fill="#161616" fill-opacity="0.2"/>
<path d="M536.094 856.635L337.849 927.604L497.424 927.067L536.094 856.635ZM333.856 928.987C333.513 928.983 333.219 928.748 333.158 928.424C333.097 928.097 333.285 927.776 333.61 927.66L537.345 854.725C537.624 854.628 537.937 854.701 538.132 854.914L538.226 855.684L498.484 928.068L497.855 928.432L333.859 928.987L333.856 928.987Z" fill="#161616" fill-opacity="0.2"/>
<path d="M498.39 928.745L451.558 1177.92L738.366 1036.14L498.39 928.745ZM450.599 1179.85L450.177 1179.72L449.9 1179.04L497.155 927.629L497.528 927.145L498.157 927.13L740.285 1035.49L740.698 1036.09L740.313 1036.71L450.93 1179.77L450.599 1179.85Z" fill="#161616" fill-opacity="0.2"/>
<path d="M498.832 927.432L736.193 1033.66L537.79 856.477L498.832 927.432ZM739.979 1036.79L739.682 1036.73L497.553 928.368L497.177 927.966L497.222 927.43L536.964 855.049L537.474 854.693L538.082 854.865L740.468 1035.61C740.726 1035.84 740.772 1036.21 740.575 1036.49L739.979 1036.79Z" fill="#161616" fill-opacity="0.2"/>
<path d="M643.106 398.041L642.517 397.738C642.295 397.423 642.386 396.997 642.714 396.787L807.266 291.101C807.591 290.891 808.034 290.976 808.253 291.291C808.475 291.603 808.383 292.029 808.059 292.239L643.504 397.925L643.106 398.041Z" fill="#161616" fill-opacity="0.2"/>
<path d="M644.762 397.12L807.072 444.043L806.951 292.95L644.762 397.12ZM807.783 445.65L807.583 445.62L642.903 398.012C642.639 397.933 642.445 397.72 642.405 397.458L642.715 396.787L807.267 291.101L807.996 291.066L808.375 291.67L808.497 444.964L808.211 445.513L807.783 445.65Z" fill="#161616" fill-opacity="0.2"/>
<path d="M808.376 292.807L808.498 443.909L969.588 374.496L808.376 292.807ZM807.784 445.65L807.399 445.539L807.077 444.964L806.952 291.67L807.295 291.084L807.997 291.066L971.549 373.942L971.929 374.569L971.507 375.17L808.079 445.588L807.784 445.65Z" fill="#161616" fill-opacity="0.2"/>
<path d="M808.543 291.343L970.152 373.233L893.079 65.8833L808.543 291.343ZM971.209 375.231L970.881 375.149L807.331 292.276C807.015 292.116 806.869 291.76 806.991 291.436L892.542 63.2705C892.648 62.9876 892.949 62.7806 893.249 62.8214C893.565 62.836 893.832 63.0489 893.905 63.3434L971.907 374.385L971.652 375.088L971.209 375.231Z" fill="#161616" fill-opacity="0.2"/>
<path d="M801.221 798.394C796.581 798.371 792.798 801.966 792.776 806.423C792.752 810.881 796.493 814.511 801.136 814.535C805.776 814.558 809.559 810.963 809.584 806.504C809.608 802.048 805.861 798.418 801.221 798.394Z" fill="#161616" fill-opacity="0.2"/>
<path d="M801.236 795.657C795.032 795.628 789.955 800.451 789.925 806.412C789.892 812.37 794.917 817.243 801.121 817.271C807.327 817.303 812.401 812.48 812.432 806.519C812.465 800.562 807.443 795.69 801.236 795.657ZM801.221 798.395C805.861 798.419 809.608 802.049 809.583 806.505C809.559 810.964 805.776 814.559 801.136 814.536C796.493 814.512 792.752 810.882 792.776 806.423C792.798 801.967 796.581 798.372 801.221 798.395Z" fill="#211D1D" fill-opacity="0.2"/>
<path d="M7.04311 1061.75C4.7384 1061.73 2.86182 1063.52 2.84967 1065.73C2.83752 1067.94 4.69588 1069.74 7.0006 1069.76C9.30531 1069.77 11.1819 1067.98 11.194 1065.77C11.2062 1063.56 9.34783 1061.76 7.04311 1061.75Z" fill="#161616" fill-opacity="0.2"/>
<path d="M7.05696 1059.01C3.18541 1058.99 0.0183275 1062 0.000108088 1065.72C-0.0211478 1069.43 3.11253 1072.47 6.98409 1072.49C10.8556 1072.51 14.0227 1069.5 14.044 1065.78C14.0622 1062.07 10.9285 1059.03 7.05696 1059.01ZM7.04177 1061.75C9.34648 1061.76 11.2048 1063.56 11.1927 1065.77C11.1805 1067.98 9.30396 1069.77 6.99925 1069.76C4.69454 1069.74 2.83618 1067.94 2.84832 1065.73C2.86047 1063.52 4.73705 1061.73 7.04177 1061.75Z" fill="#211D1D" fill-opacity="0.2"/>
<path d="M209.134 945.63C205.408 945.612 202.372 948.499 202.354 952.077C202.332 955.655 205.339 958.571 209.064 958.588C212.79 958.607 215.827 955.719 215.845 952.144C215.863 948.567 212.86 945.651 209.134 945.63Z" fill="#161616" fill-opacity="0.2"/>
<path d="M209.146 942.894C203.856 942.868 199.529 946.98 199.502 952.063C199.475 957.146 203.759 961.299 209.049 961.327C214.342 961.353 218.669 957.239 218.696 952.156C218.723 947.076 214.439 942.92 209.146 942.894ZM209.134 945.63C212.86 945.651 215.863 948.567 215.845 952.145C215.826 955.719 212.79 958.607 209.064 958.589C205.338 958.572 202.332 955.655 202.353 952.078C202.372 948.5 205.408 945.612 209.134 945.63Z" fill="#211D1D" fill-opacity="0.2"/>
<path d="M603.938 538.409C601.688 538.397 599.857 540.141 599.845 542.299C599.833 544.46 601.649 546.221 603.896 546.233C606.146 546.242 607.98 544.501 607.992 542.34C608.004 540.179 606.188 538.421 603.938 538.409Z" fill="#161616" fill-opacity="0.2"/>
<path d="M603.956 535.67C600.139 535.653 597.017 538.621 596.999 542.287C596.978 545.952 600.069 548.95 603.886 548.968C607.703 548.985 610.824 546.019 610.846 542.354C610.864 538.688 607.773 535.691 603.956 535.67ZM603.941 538.408C606.191 538.42 608.006 540.179 607.994 542.339C607.982 544.5 606.148 546.241 603.898 546.232C601.651 546.221 599.835 544.459 599.847 542.299C599.859 540.141 601.691 538.397 603.941 538.408Z" fill="#211D1D" fill-opacity="0.2"/>
<path d="M842.99 697.366C837.861 697.34 833.683 701.312 833.655 706.237C833.631 711.162 837.767 715.175 842.892 715.198C848.021 715.225 852.199 711.253 852.227 706.328C852.254 701.402 848.115 697.39 842.99 697.366Z" fill="#161616" fill-opacity="0.2"/>
<path d="M843.007 694.628C836.315 694.596 830.843 699.799 830.81 706.223C830.773 712.65 836.19 717.905 842.883 717.937C849.572 717.969 855.044 712.767 855.078 706.342C855.114 699.915 849.697 694.66 843.007 694.628ZM842.992 697.367C848.118 697.39 852.257 701.403 852.229 706.328C852.202 711.253 848.024 715.225 842.895 715.199C837.769 715.175 833.634 711.163 833.658 706.237C833.685 701.312 837.864 697.34 842.992 697.367Z" fill="#211D1D" fill-opacity="0.2"/>
<path d="M661.954 730.87C664.511 730.885 666.597 728.902 666.609 726.446C666.621 723.991 664.559 721.988 662 721.976C659.44 721.961 657.357 723.944 657.345 726.4C657.333 728.858 659.394 730.858 661.954 730.87Z" fill="#161616" fill-opacity="0.2"/>
<path d="M662.015 719.236C657.891 719.216 654.514 722.424 654.496 726.384C654.475 730.347 657.812 733.586 661.939 733.607C666.062 733.627 669.436 730.42 669.457 726.459C669.478 722.496 666.141 719.257 662.015 719.236ZM661.999 721.974C664.559 721.986 666.624 723.99 666.609 726.445C666.597 728.9 664.511 730.883 661.954 730.869C659.394 730.857 657.332 728.856 657.344 726.398C657.357 723.943 659.44 721.96 661.999 721.974Z" fill="#211D1D" fill-opacity="0.2"/>
<path d="M669.318 755.344C666.427 755.329 664.074 757.569 664.059 760.348C664.043 763.124 666.376 765.387 669.266 765.402C672.157 765.416 674.513 763.177 674.529 760.397C674.544 757.621 672.212 755.358 669.318 755.344Z" fill="#161616" fill-opacity="0.2"/>
<path d="M669.333 752.609C664.878 752.586 661.228 756.053 661.207 760.334C661.186 764.615 664.793 768.117 669.251 768.137C673.711 768.161 677.355 764.696 677.38 760.413C677.404 756.132 673.793 752.63 669.333 752.609ZM669.318 755.344C672.211 755.359 674.543 757.622 674.528 760.398C674.513 763.177 672.157 765.417 669.266 765.402C666.375 765.388 664.043 763.125 664.058 760.349C664.074 757.569 666.427 755.333 669.318 755.344Z" fill="#211D1D" fill-opacity="0.2"/>
<path d="M752.396 816.532C750.134 816.521 748.288 818.276 748.275 820.449C748.263 822.624 750.091 824.394 752.353 824.405C754.616 824.418 756.462 822.663 756.474 820.489C756.483 818.317 754.658 816.544 752.396 816.532Z" fill="#161616" fill-opacity="0.2"/>
<path d="M752.413 813.798C748.581 813.781 745.447 816.758 745.429 820.435C745.408 824.114 748.508 827.124 752.34 827.142C756.172 827.163 759.303 824.182 759.324 820.505C759.345 816.824 756.242 813.816 752.413 813.798ZM752.398 816.533C754.66 816.545 756.485 818.317 756.476 820.49C756.464 822.663 754.617 824.419 752.355 824.406C750.093 824.395 748.265 822.622 748.277 820.45C748.289 818.277 750.135 816.521 752.398 816.533Z" fill="#211D1D" fill-opacity="0.2"/>
<path d="M250.935 1015.01C246.028 1014.98 242.032 1018.78 242.008 1023.49C241.981 1028.2 245.94 1032.04 250.844 1032.07C255.748 1032.09 259.747 1028.29 259.772 1023.58C259.796 1018.87 255.839 1015.03 250.935 1015.01Z" fill="#161616" fill-opacity="0.2"/>
<path d="M250.95 1012.27C244.479 1012.24 239.19 1017.27 239.156 1023.48C239.126 1029.69 244.361 1034.77 250.829 1034.8C257.297 1034.83 262.589 1029.81 262.62 1023.59C262.653 1017.38 257.418 1012.3 250.95 1012.27ZM250.935 1015.01C255.839 1015.03 259.796 1018.87 259.771 1023.58C259.747 1028.29 255.748 1032.09 250.844 1032.07C245.94 1032.04 241.98 1028.2 242.008 1023.49C242.032 1018.78 246.028 1014.98 250.935 1015.01Z" fill="#211D1D" fill-opacity="0.2"/>
<path d="M338.973 928.328C338.988 925.616 336.711 923.406 333.887 923.392C331.06 923.377 328.761 925.567 328.746 928.279C328.731 930.99 331.008 933.201 333.835 933.216C336.659 933.228 338.958 931.04 338.973 928.328Z" fill="#161616" fill-opacity="0.2"/>
<path d="M333.899 920.652C329.508 920.632 325.919 924.047 325.895 928.264C325.87 932.481 329.426 935.93 333.82 935.95C338.211 935.971 341.803 932.559 341.824 928.342C341.845 924.123 338.293 920.676 333.899 920.652ZM333.887 923.391C336.711 923.405 338.988 925.615 338.973 928.327C338.958 931.04 336.659 933.227 333.835 933.215C331.008 933.201 328.731 930.99 328.746 928.278C328.758 925.566 331.06 923.376 333.887 923.391Z" fill="#211D1D" fill-opacity="0.2"/>
<path d="M497.895 919.679C493.255 919.659 489.475 923.251 489.45 927.708C489.426 932.166 493.17 935.797 497.81 935.82C502.453 935.843 506.233 932.248 506.257 927.792C506.282 923.333 502.538 919.703 497.895 919.679Z" fill="#161616" fill-opacity="0.2"/>
<path d="M497.91 916.944C491.706 916.913 486.632 921.736 486.602 927.696C486.568 933.654 491.591 938.526 497.797 938.559C504.001 938.587 509.075 933.765 509.105 927.807C509.136 921.846 504.116 916.974 497.91 916.944ZM497.895 919.679C502.537 919.703 506.281 923.334 506.257 927.792C506.233 932.248 502.452 935.843 497.809 935.821C493.17 935.797 489.426 932.166 489.45 927.708C489.474 923.252 493.255 919.659 497.895 919.679Z" fill="#211D1D" fill-opacity="0.2"/>
<path d="M740.023 1029.07C735.975 1029.05 732.678 1032.19 732.656 1036.07C732.635 1039.96 735.899 1043.13 739.947 1043.15C743.995 1043.17 747.292 1040.03 747.314 1036.14C747.335 1032.26 744.071 1029.09 740.023 1029.07Z" fill="#161616" fill-opacity="0.2"/>
<path d="M740.035 1026.33C734.423 1026.3 729.832 1030.67 729.802 1036.06C729.778 1041.45 734.32 1045.86 739.932 1045.88C745.546 1045.91 750.137 1041.55 750.162 1036.16C750.192 1030.76 745.649 1026.36 740.035 1026.33ZM740.023 1029.07C744.07 1029.09 747.335 1032.25 747.313 1036.14C747.292 1040.03 743.994 1043.17 739.947 1043.15C735.899 1043.13 732.635 1039.96 732.656 1036.07C732.674 1032.18 735.975 1029.05 740.023 1029.07Z" fill="#211D1D" fill-opacity="0.2"/>
<path d="M537.623 850.2C534.65 850.185 532.23 852.488 532.215 855.341C532.2 858.195 534.596 860.519 537.568 860.534C540.538 860.549 542.958 858.248 542.973 855.393C542.988 852.541 540.593 850.214 537.623 850.2Z" fill="#161616" fill-opacity="0.2"/>
<path d="M537.635 847.463C533.098 847.441 529.388 850.97 529.363 855.326C529.339 859.685 533.013 863.249 537.553 863.27C542.089 863.293 545.8 859.764 545.824 855.408C545.849 851.048 542.174 847.484 537.635 847.463ZM537.623 850.2C540.592 850.213 542.988 852.541 542.973 855.393C542.961 858.248 540.538 860.549 537.568 860.534C534.595 860.519 532.2 858.195 532.215 855.34C532.23 852.488 534.65 850.185 537.623 850.2Z" fill="#211D1D" fill-opacity="0.2"/>
<path d="M643.143 391.178C639.587 391.16 636.693 393.913 636.672 397.325C636.657 400.74 639.52 403.522 643.076 403.536C646.632 403.557 649.529 400.804 649.547 397.389C649.565 393.977 646.695 391.195 643.143 391.178Z" fill="#161616" fill-opacity="0.2"/>
<path d="M643.16 388.439C638.037 388.413 633.853 392.396 633.825 397.313C633.798 402.23 637.943 406.248 643.062 406.274C648.182 406.3 652.369 402.32 652.397 397.403C652.424 392.487 648.279 388.465 643.16 388.439ZM643.144 391.177C646.697 391.195 649.567 393.977 649.548 397.389C649.53 400.804 646.633 403.556 643.078 403.536C639.522 403.521 636.658 400.739 636.674 397.325C636.692 393.913 639.589 391.16 643.144 391.177Z" fill="#211D1D" fill-opacity="0.2"/>
<path d="M807.811 440.375C805.172 440.364 803.019 442.408 803.007 444.945C802.992 447.479 805.12 449.544 807.759 449.558C810.401 449.57 812.551 447.526 812.566 444.992C812.578 442.455 810.449 440.39 807.811 440.375Z" fill="#161616" fill-opacity="0.2"/>
<path d="M807.827 437.639C803.618 437.619 800.178 440.888 800.153 444.93C800.132 448.969 803.542 452.272 807.745 452.293C811.953 452.313 815.397 449.044 815.418 445.003C815.439 440.964 812.032 437.66 807.827 437.639ZM807.811 440.375C810.45 440.389 812.579 442.454 812.567 444.991C812.552 447.525 810.402 449.569 807.76 449.558C805.121 449.543 802.993 447.478 803.008 444.944C803.02 442.407 805.173 440.363 807.811 440.375Z" fill="#211D1D" fill-opacity="0.2"/>
<path d="M807.609 301.554C813.291 301.583 817.924 297.18 817.952 291.724C817.979 286.265 813.4 281.818 807.716 281.788C802.031 281.762 797.401 286.163 797.37 291.622C797.343 297.08 801.925 301.525 807.609 301.554Z" fill="#161616" fill-opacity="0.2"/>
<path d="M807.728 279.053C800.486 279.018 794.562 284.649 794.523 291.607C794.486 298.567 800.35 304.254 807.595 304.292C814.84 304.327 820.764 298.693 820.804 291.735C820.84 284.777 814.974 279.088 807.728 279.053ZM807.716 281.788C813.398 281.817 817.98 286.264 817.952 291.723C817.925 297.179 813.291 301.583 807.61 301.554C801.926 301.524 797.344 297.08 797.371 291.621C797.401 286.162 802.032 281.762 807.716 281.788Z" fill="#211D1D" fill-opacity="0.2"/>
<path d="M971.239 369.501C968.34 369.49 965.977 371.735 965.962 374.52C965.947 377.305 968.285 379.576 971.188 379.588C974.088 379.603 976.45 377.357 976.465 374.572C976.48 371.787 974.139 369.516 971.239 369.501Z" fill="#161616" fill-opacity="0.2"/>
<path d="M971.253 366.767C966.786 366.744 963.133 370.217 963.108 374.506C963.087 378.796 966.704 382.307 971.171 382.327C975.637 382.351 979.29 378.878 979.314 374.588C979.336 370.298 975.722 366.787 971.253 366.767ZM971.237 369.502C974.14 369.517 976.478 371.788 976.463 374.573C976.448 377.358 974.086 379.604 971.186 379.589C968.283 379.577 965.945 377.306 965.96 374.521C965.975 371.736 968.337 369.491 971.237 369.502Z" fill="#211D1D" fill-opacity="0.2"/>
</svg>
