<svg width="918" height="807" viewBox="0 0 918 807" fill="none" xmlns="http://www.w3.org/2000/svg">
<path d="M1.13736 355.503L110.274 349.322L22.0975 297.976L0.915466 313.814L0.911469 312.676L21.7776 297.074L22.3093 297.045L112.047 349.303C112.223 349.405 112.309 349.604 112.259 349.796C112.209 349.988 112.037 350.125 111.833 350.138L1.14341 356.405L1.13736 355.503Z" fill="#F5F5F5" fill-opacity="0.6"/>
<path d="M2.25877 566.552L58.8973 597.766L101.673 586.794L2.17072 550.203L2.16673 549.235L103.362 586.448C103.548 586.517 103.672 586.698 103.66 586.892C103.65 587.088 103.51 587.253 103.314 587.305L58.9532 598.686L58.8334 598.701L58.5974 598.642L2.26473 567.594L2.25877 566.552Z" fill="#F5F5F5" fill-opacity="0.6"/>
<path d="M481.495 478.669L476.891 500.046L367.542 465.985L481.495 478.669ZM477.245 501.081L477.48 501.019L477.702 500.722L482.519 478.367L482.441 478.012L482.115 477.83L362.966 464.57C362.712 464.534 362.504 464.695 362.452 464.92C362.402 465.148 362.538 465.375 362.768 465.446L477.099 501.059L477.245 501.081Z" fill="#F5F5F5" fill-opacity="0.6"/>
<path d="M848.473 739.055L792.97 773.062L753.713 675.116L848.473 739.055ZM792.74 774.187L792.99 774.116L849.568 739.453L849.786 739.081L849.586 738.704L752.991 673.529L752.433 673.542C752.269 673.665 752.209 673.874 752.283 674.059L792.3 773.897L792.592 774.166L792.74 774.187Z" fill="#F5F5F5" fill-opacity="0.6"/>
<path d="M792.06 773.296L622.58 775.892L752.515 674.636L792.06 773.296ZM621.233 776.813H621.239L792.746 774.187L793.128 773.99L793.176 773.575L753.159 673.736L752.843 673.461L752.425 673.548L620.935 776.015C620.781 776.134 620.723 776.337 620.791 776.516C620.859 776.696 621.035 776.816 621.233 776.813Z" fill="#F5F5F5" fill-opacity="0.6"/>
<path d="M362.005 464.882L165.776 540.544L262.659 386.249L362.005 464.882ZM164.654 541.913L164.826 541.88L363.087 465.436L363.377 465.085L363.211 464.67L262.837 385.222L262.461 385.124L262.139 385.335L164.25 541.229L164.292 541.755L164.654 541.913Z" fill="#F5F5F5" fill-opacity="0.6"/>
<path d="M261.865 385.771L165.273 539.597L180.707 350.918L261.865 385.771ZM164.654 541.913L165.051 541.696L262.94 385.802L262.986 385.435L262.73 385.158L180.484 349.835L180.054 349.858L179.826 350.209L164.184 541.427C164.166 541.636 164.3 541.828 164.508 541.891L164.654 541.913Z" fill="#F5F5F5" fill-opacity="0.6"/>
<path d="M179.786 350.691L164.4 538.789L112.416 350.144L179.786 350.691ZM164.654 541.913L164.692 541.911C164.922 541.891 165.102 541.716 165.118 541.498L180.762 350.282L180.638 349.94L180.296 349.795L111.808 349.238L111.434 349.411L111.352 349.802L164.196 541.577C164.252 541.778 164.44 541.915 164.654 541.913Z" fill="#F5F5F5" fill-opacity="0.6"/>
<path d="M2.16702 549.237L103.117 586.358L163.438 541.79L2.03914 525.18L2.03514 524.274L164.7 541.014C164.891 541.035 165.049 541.162 165.103 541.341C165.153 541.517 165.089 541.707 164.937 541.819L103.479 587.226L103.197 587.318L103.025 587.29L2.17102 550.201L2.16702 549.237Z" fill="#F5F5F5" fill-opacity="0.6"/>
<path d="M112.555 288.661L179.112 349.785L112.277 349.242L112.555 288.661ZM180.296 350.695C180.486 350.695 180.656 350.584 180.728 350.415L180.616 349.921L112.415 287.284L111.908 287.196C111.736 287.267 111.624 287.428 111.624 287.609L111.336 349.685C111.334 349.935 111.542 350.136 111.8 350.138L180.288 350.695H180.296Z" fill="#F5F5F5" fill-opacity="0.6"/>
<path d="M0.500259 235.239L111.624 286.892L111.948 1.78629L0.00650024 142.676L0.000450134 141.199L112.044 0.177307C112.166 0.0237122 112.378 -0.0377197 112.568 0.0256348C112.758 0.085144 112.886 0.259918 112.886 0.451904L112.56 287.611L112.342 287.991L112.094 288.062L111.888 288.016L0.504257 236.242L0.500259 235.239Z" fill="#F5F5F5" fill-opacity="0.6"/>
<path d="M111.621 288.115L111.339 348.89L23.4823 297.729L111.621 288.115ZM111.807 350.138L112.035 350.081L112.275 349.689L112.559 287.612L112.405 287.274L112.039 287.163L22.0108 296.982C21.8129 297.005 21.649 297.145 21.605 297.333C21.563 297.519 21.6509 297.713 21.8209 297.813L111.561 350.073L111.807 350.138Z" fill="#F5F5F5" fill-opacity="0.6"/>
<path d="M0.694962 272.337L22.2608 296.953L110.429 287.338L0.503044 236.242L0.499039 235.237L112.295 287.205C112.483 287.292 112.589 287.488 112.553 287.685C112.519 287.885 112.353 288.035 112.143 288.058L22.1168 297.876L22.0668 297.878L21.7051 297.721L0.702965 273.746L0.694962 272.337Z" fill="#F5F5F5" fill-opacity="0.6"/>
<path d="M621.361 776.796L517.151 806.007L513.744 806.024L619.97 776.247L431.537 683.096L477.062 806.203L476.068 806.208L430.256 682.324C430.192 682.151 430.246 681.957 430.39 681.836L430.915 681.773L621.445 775.961C621.615 776.048 621.715 776.223 621.697 776.407C621.679 776.591 621.545 776.744 621.361 776.796Z" fill="#F5F5F5" fill-opacity="0.6"/>
<path d="M476.07 806.208L430.433 682.799L306.87 740.382L459.082 806.291L456.827 806.302L305.568 740.809C305.402 740.735 305.297 740.578 305.295 740.403C305.291 740.228 305.394 740.067 305.556 739.99L430.497 681.769L430.879 681.758L431.143 682.022L477.062 806.202L476.07 806.208Z" fill="#F5F5F5" fill-opacity="0.6"/>
<path d="M474.452 502.085L422.449 539.703L391.903 530.936L474.452 502.085ZM422.543 540.649L422.825 540.559L477.524 500.99C477.71 500.856 477.766 500.612 477.654 500.414C477.544 500.219 477.299 500.13 477.081 500.207L390.25 530.555C390.06 530.62 389.934 530.798 389.94 530.99C389.946 531.184 390.082 531.355 390.274 531.409L422.407 540.63L422.543 540.649Z" fill="#F5F5F5" fill-opacity="0.6"/>
<path d="M475.802 500.655L390.678 530.404L363.72 465.744L475.802 500.655ZM390.412 531.427L390.572 531.401L477.403 501.054C477.591 500.989 477.717 500.814 477.713 500.624C477.709 500.43 477.579 500.261 477.389 500.201L363.056 464.59L362.57 464.709L362.476 465.185L389.974 531.146C390.048 531.32 390.226 531.43 390.412 531.427Z" fill="#F5F5F5" fill-opacity="0.6"/>
<path d="M422.092 540.54L429.967 677.609L391.069 531.637L422.092 540.54ZM430.702 682.625L430.77 682.62C431.008 682.586 431.182 682.38 431.168 682.149L423.009 540.173C423.001 539.985 422.865 539.822 422.675 539.766L390.543 530.546L390.086 530.652L389.954 531.088L430.246 682.286C430.298 682.487 430.49 682.625 430.702 682.625Z" fill="#F5F5F5" fill-opacity="0.6"/>
<path d="M389.73 530.558L167.412 540.883L362.652 465.603L389.73 530.558ZM164.653 541.913H164.673L390.434 531.427L390.804 531.22L390.846 530.809L363.348 464.849L363.098 464.603L362.738 464.599L164.475 541.044C164.263 541.125 164.144 541.345 164.192 541.56C164.239 541.767 164.433 541.915 164.653 541.913Z" fill="#F5F5F5" fill-opacity="0.6"/>
<path d="M385.447 293.994L362.556 464.152L263.288 385.579L385.447 293.994ZM362.914 465.467L363.086 465.436L363.376 465.075L386.523 293.023C386.549 292.842 386.457 292.666 386.291 292.576L385.769 292.61L262.25 385.214L262.068 385.564L262.238 385.917L362.612 465.363L362.914 465.467Z" fill="#F5F5F5" fill-opacity="0.6"/>
<path d="M385.158 293.071L263.128 384.557L278.854 247.266L385.158 293.071ZM262.542 386.019L262.826 385.923L386.349 293.32L386.525 292.911L386.253 292.554L278.65 246.191L278.226 246.21L277.99 246.552L262.071 385.519C262.053 385.7 262.147 385.875 262.31 385.963L262.542 386.019Z" fill="#F5F5F5" fill-opacity="0.6"/>
<path d="M329.243 42.1632L278.258 245.477L113.413 1.10072L329.243 42.1632ZM278.462 247.053L278.538 247.047C278.724 247.016 278.87 246.882 278.914 246.707L330.271 41.9155L330.209 41.5699L329.905 41.3702L112.507 0.00827026C112.325 -0.0262909 112.131 0.048584 112.029 0.198349L112.023 0.695587L278.064 246.846L278.462 247.053Z" fill="#F5F5F5" fill-opacity="0.6"/>
<path d="M277.834 247.93L262.144 384.905L181.077 350.088L277.834 247.93ZM262.542 386.019L262.772 385.961L263.004 385.619L278.924 246.652C278.948 246.456 278.836 246.271 278.65 246.191C278.468 246.112 278.248 246.154 278.112 246.298L179.945 349.942L179.833 350.338L180.099 350.657L262.348 385.98L262.542 386.019Z" fill="#F5F5F5" fill-opacity="0.6"/>
<path d="M277.057 247.412L180.268 349.601L113.027 287.847L277.057 247.412ZM180.296 350.695H180.31L180.64 350.549L278.806 246.905L278.86 246.37C278.752 246.201 278.547 246.114 278.343 246.166L111.974 287.173L111.638 287.497L111.768 287.935L179.968 350.57L180.296 350.695Z" fill="#F5F5F5" fill-opacity="0.6"/>
<path d="M277.71 246.322L112.561 287.029L112.882 1.9744L277.71 246.322ZM112.093 288.062L112.207 288.046L278.574 247.04L278.894 246.767L278.852 246.358L112.808 0.208008C112.699 0.0390625 112.487 -0.0357971 112.285 0.0198669C112.085 0.0755615 111.947 0.250275 111.947 0.451874L111.623 287.611L111.803 287.968L112.093 288.062Z" fill="#F5F5F5" fill-opacity="0.6"/>
<path d="M390.122 531.715L430.063 681.602L220.684 644.113L390.122 531.715ZM430.702 682.625L431.042 682.481L431.156 682.063L390.863 530.867L390.574 530.556L390.144 530.606L219.224 643.986C219.069 644.088 218.995 644.272 219.033 644.451C219.073 644.629 219.218 644.766 219.406 644.798L430.614 682.618L430.702 682.625Z" fill="#F5F5F5" fill-opacity="0.6"/>
<path d="M429.213 682.366L305.883 739.84L220.72 645.034L429.213 682.366ZM305.763 740.847L305.965 740.803L430.904 682.579C431.086 682.495 431.192 682.306 431.166 682.114C431.138 681.921 430.986 681.767 430.784 681.73L219.578 643.913C219.38 643.879 219.182 643.965 219.082 644.132L219.136 644.65L305.406 740.689L305.763 740.847Z" fill="#F5F5F5" fill-opacity="0.6"/>
<path d="M388.791 531.505L219.665 643.694L165.4 541.878L388.791 531.505ZM219.495 644.805L219.757 644.727L390.679 531.349C390.851 531.234 390.922 531.022 390.855 530.833C390.789 530.642 390.587 530.525 390.389 530.527L164.628 541.012L164.244 541.236L164.234 541.668L219.076 644.562L219.377 644.794L219.495 644.805Z" fill="#F5F5F5" fill-opacity="0.6"/>
<path d="M304.959 740.192L247.593 759.739L220.371 646.027L304.959 740.192ZM247.255 760.784L247.409 760.757L305.919 740.822L306.215 740.512L306.117 740.104L219.844 644.063C219.706 643.906 219.472 643.864 219.278 643.955C219.084 644.048 218.986 644.255 219.032 644.457L246.797 760.434L247.027 760.728L247.255 760.784Z" fill="#F5F5F5" fill-opacity="0.6"/>
<path d="M219.221 645.234L246.654 759.83L108.205 748.153L219.221 645.234ZM247.256 760.784L247.608 760.628L247.712 760.233L219.948 644.255L219.625 643.924L219.167 644.033L106.811 748.192L106.695 748.667C106.755 748.834 106.913 748.949 107.097 748.964L247.214 760.782L247.256 760.784Z" fill="#F5F5F5" fill-opacity="0.6"/>
<path d="M164.489 542.151L218.409 643.314L104.064 586.794L164.489 542.151ZM219.494 644.805L219.824 644.675C219.966 644.537 220 644.325 219.91 644.151L165.067 541.258L164.753 541.023L164.363 541.106L102.906 586.512L102.725 586.909L102.976 587.27L219.276 644.758L219.494 644.805Z" fill="#F5F5F5" fill-opacity="0.6"/>
<path d="M218.587 644.568L107.361 747.684L59.539 598.924L218.587 644.568ZM107.139 748.966L107.463 748.838L219.818 644.68L219.946 644.249L219.624 643.924L58.9652 597.82L58.4975 597.933L58.3835 598.385L106.689 748.65L107.021 748.951L107.139 748.966Z" fill="#F5F5F5" fill-opacity="0.6"/>
<path d="M103.138 587.349L214.778 642.534L60.5546 598.275L103.138 587.349ZM219.494 644.805C219.678 644.805 219.852 644.698 219.926 644.523C220.016 644.308 219.92 644.063 219.706 643.955L103.408 586.467L103.071 586.434L58.7112 597.816C58.5073 597.868 58.3654 598.043 58.3614 598.245C58.3594 598.446 58.4953 598.625 58.6973 598.683L219.356 644.788L219.494 644.805Z" fill="#F5F5F5" fill-opacity="0.6"/>
<path d="M780.41 627.49L910.766 700.798L753.452 673.566L780.41 627.49ZM913.285 702.142C913.479 702.142 913.655 702.027 913.723 701.848C913.803 701.643 913.717 701.413 913.521 701.303L780.472 626.482L780.114 626.435L779.826 626.649L752.312 673.676L752.296 674.09L752.638 674.339L913.201 702.135L913.285 702.142Z" fill="#F5F5F5" fill-opacity="0.6"/>
<path d="M779.511 627.192L752.645 673.106L699.309 611.886L779.511 627.192ZM752.723 674.347L752.765 674.345L753.131 674.116L780.644 627.09L780.662 626.681L780.328 626.428L698.185 610.753C697.993 610.717 697.791 610.799 697.692 610.964L697.735 611.485L752.361 674.187L752.723 674.347Z" fill="#F5F5F5" fill-opacity="0.6"/>
<path d="M520.288 357.515L520.402 357.499C520.654 357.438 520.804 357.192 520.74 356.95L494.936 261.506C494.872 261.266 494.618 261.119 494.364 261.184C494.114 261.245 493.962 261.491 494.028 261.733L519.832 357.177C519.886 357.38 520.078 357.515 520.288 357.515Z" fill="#F5F5F5" fill-opacity="0.6"/>
<path d="M494.15 262.186L519.573 356.221L387.329 293.069L494.15 262.186ZM520.288 357.515L520.582 357.413L520.74 356.95L494.936 261.506L494.712 261.228L494.348 261.19L385.925 292.535C385.741 292.587 385.607 292.744 385.593 292.929C385.575 293.111 385.679 293.288 385.851 293.368L520.076 357.467L520.288 357.515Z" fill="#F5F5F5" fill-opacity="0.6"/>
<path d="M519.436 358.2L481.725 477.786L364.175 464.705L519.436 358.2ZM482.062 478.727C482.264 478.727 482.448 478.6 482.508 478.408L520.734 357.194C520.792 357.01 520.722 356.81 520.558 356.699L520.012 356.697L362.64 464.651C362.482 464.759 362.41 464.949 362.458 465.129C362.506 465.312 362.666 465.442 362.858 465.465L482.004 478.725L482.062 478.727Z" fill="#F5F5F5" fill-opacity="0.6"/>
<path d="M519.376 357.133L363.515 464.05L386.439 293.651L519.376 357.133ZM362.914 465.467L363.186 465.384L520.558 357.43L520.754 357.029L520.494 356.66L386.269 292.562L385.839 292.568L385.595 292.908L362.446 464.96C362.422 465.137 362.512 465.312 362.672 465.404L362.914 465.467Z" fill="#F5F5F5" fill-opacity="0.6"/>
<path d="M482.332 479.226L560.065 559.805L477.762 500.441L482.332 479.226ZM563.953 563.626L564.299 563.478C564.463 563.303 564.461 563.038 564.295 562.869L482.402 477.97L481.932 477.843L481.599 478.187L476.782 500.539L476.96 500.991L563.669 563.535L563.953 563.626Z" fill="#F5F5F5" fill-opacity="0.6"/>
<path d="M477.242 501.194L562.126 562.42L423.693 539.93L477.242 501.194ZM563.954 563.626C564.14 563.624 564.309 563.52 564.383 563.353C564.469 563.161 564.407 562.941 564.235 562.814L477.524 500.271H476.961L422.257 539.839C422.109 539.947 422.041 540.131 422.087 540.306C422.129 540.481 422.279 540.613 422.463 540.642L563.874 563.618L563.954 563.626Z" fill="#F5F5F5" fill-opacity="0.6"/>
<path d="M562.938 563.466L431.112 681.189L423.041 540.738L562.938 563.466ZM430.702 682.625L431.018 682.505L564.271 563.505L564.401 563.046L564.031 562.731L422.619 539.755L422.229 539.862L422.073 540.223L430.232 682.199C430.242 682.374 430.354 682.526 430.524 682.593L430.702 682.625Z" fill="#F5F5F5" fill-opacity="0.6"/>
<path d="M1.59904 442.372L163.892 540.473L111.489 350.305L1.34718 394.989L1.34114 394.013L111.623 349.272L112.011 349.284L112.259 349.574L165.103 541.348C165.153 541.524 165.083 541.716 164.929 541.826L164.653 541.913L164.399 541.843L1.6051 443.439L1.59904 442.372Z" fill="#F5F5F5" fill-opacity="0.6"/>
<path d="M2.03476 524.274L162.686 540.807L1.60493 443.441L1.59889 442.372L164.901 541.081C165.085 541.193 165.165 541.411 165.095 541.609C165.027 541.792 164.851 541.913 164.653 541.913L164.601 541.911L2.03876 525.18L2.03476 524.274Z" fill="#F5F5F5" fill-opacity="0.6"/>
<path d="M1.34093 394.013L109.11 350.292L1.14306 356.405L1.137 355.503L111.777 349.24C112.033 349.219 112.209 349.372 112.261 349.585C112.313 349.8 112.199 350.017 111.987 350.104L1.34698 394.989L1.34093 394.013Z" fill="#F5F5F5" fill-opacity="0.6"/>
<path d="M697.873 611.644L751.157 672.805L592.555 611.289L697.873 611.644ZM752.723 674.347L753.101 674.16L753.081 673.607L698.453 610.905L698.095 610.746L590.12 610.381H590.116C589.894 610.382 589.7 610.534 589.658 610.746C589.616 610.957 589.734 611.168 589.942 611.249L752.547 674.316L752.723 674.347Z" fill="#F5F5F5" fill-opacity="0.6"/>
<path d="M751.807 674.028L621.552 775.533L590.732 611.556L751.807 674.028ZM621.233 776.813L621.526 776.714L753.017 674.247L753.185 673.83L752.897 673.479L590.294 610.413L589.822 610.481L589.658 610.911L620.769 776.443L621.067 776.785L621.233 776.813Z" fill="#F5F5F5" fill-opacity="0.6"/>
<path d="M564.942 564.01L695.466 610.736L590.402 610.383L564.942 564.01ZM698.095 611.646C698.321 611.644 698.515 611.489 698.555 611.276C698.595 611.06 698.471 610.849 698.257 610.772L564.118 562.752C563.934 562.688 563.728 562.736 563.6 562.877L563.538 563.384L589.704 611.041L590.118 611.281L698.093 611.646H698.095Z" fill="#F5F5F5" fill-opacity="0.6"/>
<path d="M589.766 611.487L620.601 775.544L431.766 682.196L589.766 611.487ZM621.233 776.813L621.51 776.726L621.692 776.284L590.58 610.752L590.334 610.433L589.92 610.423L430.503 681.765L430.231 682.165L430.485 682.574L621.015 776.764L621.233 776.813Z" fill="#F5F5F5" fill-opacity="0.6"/>
<path d="M589.475 610.623L433.196 680.56L563.825 563.906L589.475 610.623ZM430.703 682.625L430.899 682.583L590.317 611.239L590.564 610.974L590.534 610.621L564.368 562.965L564.032 562.731L563.633 562.845L430.381 681.844C430.211 681.996 430.181 682.241 430.311 682.426L430.703 682.625Z" fill="#F5F5F5" fill-opacity="0.6"/>
<path d="M2.53286 617.909L57.73 598.164L2.265 567.594L2.25904 566.552L59.0635 597.861C59.2234 597.947 59.3134 598.114 59.2994 598.289C59.2854 598.461 59.1655 598.611 58.9935 598.674L2.53687 618.869L2.53286 617.909Z" fill="#F5F5F5" fill-opacity="0.6"/>
<path d="M494.484 262.071L494.872 261.871C495.018 261.664 494.958 261.384 494.742 261.245L386.401 191.662C386.187 191.524 385.895 191.579 385.751 191.787C385.606 191.992 385.666 192.272 385.879 192.411L494.222 261.994L494.484 262.071Z" fill="#F5F5F5" fill-opacity="0.6"/>
<path d="M493.394 261.464L386.528 292.359L386.608 192.879L493.394 261.464ZM386.06 293.417L386.192 293.397L494.617 262.052C494.791 262 494.919 261.86 494.945 261.687L494.741 261.245L386.4 191.662L385.921 191.639L385.671 192.036L385.591 292.965L385.779 293.326L386.06 293.417Z" fill="#F5F5F5" fill-opacity="0.6"/>
<path d="M385.672 192.785L385.592 292.27L279.53 246.569L385.672 192.785ZM386.062 293.417L386.315 293.344L386.527 292.965L386.609 192.036L386.383 191.65L385.922 191.639L278.238 246.204L277.989 246.617L278.266 247.013L385.868 293.376L386.062 293.417Z" fill="#F5F5F5" fill-opacity="0.6"/>
<path d="M385.562 191.821L279.158 245.738L329.903 43.3785L385.562 191.821ZM278.462 247.053L278.678 246.999L386.359 192.436C386.567 192.33 386.663 192.096 386.583 191.883L330.257 41.6582C330.187 41.472 329.989 41.3356 329.791 41.3625C329.583 41.3721 329.407 41.5123 329.359 41.7062L278.002 246.496L278.17 246.959L278.462 247.053Z" fill="#F5F5F5" fill-opacity="0.6"/>
<path d="M2.86538 680.371L106.296 747.426L58.6483 599.211L2.80144 668.224L2.79343 666.764L58.4623 597.974L58.9161 597.809L59.2801 598.118L107.586 748.383C107.644 748.565 107.578 748.763 107.418 748.878L107.14 748.966L106.876 748.89L2.87134 681.462L2.86538 680.371Z" fill="#F5F5F5" fill-opacity="0.6"/>
<path d="M3.35484 772.811L106.002 748.323L2.87093 681.462L2.86497 680.371L107.399 748.14C107.553 748.242 107.631 748.419 107.599 748.596C107.565 748.768 107.429 748.911 107.251 748.953L3.36079 773.738L3.35484 772.811Z" fill="#F5F5F5" fill-opacity="0.6"/>
<path d="M2.79235 666.765L57.4476 599.228L2.5364 618.869L2.53239 617.909L58.6672 597.83C58.8631 597.759 59.085 597.823 59.209 597.985L59.2029 598.527L2.80036 668.224L2.79235 666.765Z" fill="#F5F5F5" fill-opacity="0.6"/>
<path d="M262.506 379.602C265.939 379.585 268.736 382.242 268.754 385.539C268.772 388.835 266.003 391.521 262.57 391.537C259.139 391.554 256.34 388.895 256.322 385.6C256.306 382.303 259.073 379.617 262.506 379.602Z" fill="#F5F5F5" fill-opacity="0.6"/>
<path d="M262.496 377.799C266.958 377.776 270.607 381.244 270.631 385.529C270.651 389.814 267.042 393.318 262.58 393.34C258.118 393.361 254.471 389.893 254.447 385.608C254.423 381.324 258.036 377.82 262.496 377.799ZM262.506 379.602C259.073 379.617 256.306 382.303 256.322 385.6C256.34 388.895 259.139 391.554 262.57 391.537C266.003 391.521 268.772 388.835 268.754 385.539C268.736 382.242 265.939 379.585 262.506 379.602Z" fill="#211D1D" fill-opacity="0.2"/>
<path d="M177.63 350.257C177.622 348.846 178.81 347.696 180.277 347.688C181.749 347.683 182.946 348.821 182.952 350.232C182.96 351.644 181.775 352.794 180.305 352.801C178.838 352.807 177.638 351.67 177.63 350.257Z" fill="#F5F5F5" fill-opacity="0.6"/>
<path d="M180.267 345.887C182.77 345.874 184.817 347.819 184.831 350.223C184.843 352.627 182.818 354.591 180.315 354.602C177.812 354.616 175.766 352.671 175.754 350.267C175.742 347.865 177.766 345.899 180.267 345.887ZM180.277 347.688C178.809 347.696 177.622 348.846 177.63 350.257C177.638 351.67 178.837 352.807 180.305 352.801C181.774 352.794 182.96 351.644 182.952 350.232C182.946 348.821 181.748 347.683 180.277 347.688Z" fill="#211D1D" fill-opacity="0.2"/>
<path d="M112.124 293.491C108.741 293.507 105.986 290.888 105.968 287.641C105.952 284.391 108.679 281.747 112.06 281.73C115.445 281.712 118.2 284.331 118.216 287.58C118.234 290.828 115.507 293.474 112.124 293.491Z" fill="#F5F5F5" fill-opacity="0.6"/>
<path d="M112.052 279.927C116.462 279.906 120.069 283.335 120.093 287.57C120.115 291.808 116.544 295.271 112.132 295.294C107.721 295.314 104.115 291.886 104.093 287.649C104.069 283.414 107.639 279.95 112.052 279.927ZM112.06 281.73C108.679 281.747 105.952 284.391 105.968 287.641C105.986 290.888 108.741 293.507 112.124 293.491C115.506 293.474 118.233 290.829 118.215 287.58C118.199 284.331 115.444 281.712 112.06 281.73Z" fill="#211D1D" fill-opacity="0.2"/>
<path d="M390.381 525.664C393.436 525.649 395.927 528.016 395.941 530.95C395.957 533.885 393.494 536.275 390.437 536.291C387.383 536.306 384.892 533.939 384.876 531.004C384.86 528.07 387.327 525.679 390.381 525.664Z" fill="#F5F5F5" fill-opacity="0.6"/>
<path d="M390.372 523.861C394.456 523.842 397.799 527.017 397.819 530.942C397.841 534.865 394.532 538.073 390.448 538.092C386.362 538.113 383.021 534.937 383.001 531.013C382.979 527.09 386.286 523.883 390.372 523.861ZM390.382 525.664C387.327 525.679 384.86 528.07 384.876 531.004C384.892 533.939 387.383 536.306 390.438 536.291C393.495 536.275 395.958 533.885 395.942 530.95C395.928 528.016 393.437 525.649 390.382 525.664Z" fill="#211D1D" fill-opacity="0.2"/>
<path d="M219.475 641.043C221.38 641.035 222.931 642.51 222.941 644.339C222.951 646.168 221.416 647.659 219.509 647.668C217.603 647.678 216.052 646.202 216.042 644.372C216.032 642.544 217.569 641.053 219.475 641.043Z" fill="#F5F5F5" fill-opacity="0.6"/>
<path d="M219.465 639.24C222.402 639.226 224.803 641.509 224.819 644.33C224.831 647.15 222.456 649.456 219.519 649.471C216.584 649.485 214.181 647.202 214.167 644.382C214.151 641.561 216.528 639.256 219.465 639.24ZM219.475 641.043C217.57 641.052 216.033 642.544 216.043 644.372C216.053 646.202 217.604 647.678 219.509 647.668C221.417 647.659 222.95 646.167 222.942 644.339C222.932 642.51 221.381 641.035 219.475 641.043Z" fill="#211D1D" fill-opacity="0.2"/>
<path d="M103.159 580.457C106.848 580.439 109.853 583.294 109.873 586.836C109.891 590.379 106.916 593.264 103.227 593.281C99.5408 593.301 96.536 590.444 96.516 586.901C96.498 583.359 99.4709 580.475 103.159 580.457Z" fill="#F5F5F5" fill-opacity="0.6"/>
<path d="M103.148 578.653C107.866 578.63 111.723 582.298 111.747 586.827C111.771 591.357 107.954 595.061 103.236 595.084C98.5199 595.107 94.6614 591.44 94.6374 586.911C94.6154 582.382 98.4319 578.678 103.148 578.653ZM103.158 580.456C99.4696 580.475 96.4967 583.359 96.5147 586.901C96.5347 590.444 99.5396 593.301 103.226 593.281C106.915 593.264 109.89 590.379 109.872 586.836C109.852 583.294 106.847 580.439 103.158 580.456Z" fill="#211D1D" fill-opacity="0.2"/>
<path d="M913.269 699.055C914.787 699.047 916.022 700.222 916.03 701.677C916.038 703.135 914.815 704.321 913.297 704.329C911.78 704.337 910.544 703.162 910.536 701.707C910.528 700.249 911.752 699.062 913.269 699.055Z" fill="#F5F5F5" fill-opacity="0.6"/>
<path d="M913.26 697.251C915.809 697.239 917.894 699.222 917.906 701.67C917.92 704.115 915.857 706.119 913.308 706.131C910.759 706.145 908.674 704.162 908.66 701.714C908.648 699.266 910.711 697.265 913.26 697.251ZM913.27 699.054C911.753 699.062 910.529 700.249 910.537 701.706C910.545 703.161 911.781 704.337 913.298 704.329C914.815 704.321 916.039 703.134 916.031 701.677C916.023 700.222 914.787 699.047 913.27 699.054Z" fill="#211D1D" fill-opacity="0.2"/>
<path d="M780.212 622.604C782.665 622.592 784.665 624.493 784.677 626.849C784.691 629.204 782.711 631.124 780.258 631.136C777.805 631.148 775.806 629.246 775.794 626.893C775.782 624.537 777.759 622.617 780.212 622.604Z" fill="#F5F5F5" fill-opacity="0.6"/>
<path d="M780.204 620.802C783.687 620.785 786.536 623.492 786.554 626.839C786.572 630.185 783.751 632.92 780.268 632.938C776.783 632.956 773.934 630.247 773.916 626.9C773.898 623.555 776.719 620.819 780.204 620.802ZM780.212 622.604C777.759 622.617 775.782 624.537 775.794 626.893C775.806 629.246 777.805 631.147 780.258 631.136C782.711 631.124 784.69 629.204 784.676 626.849C784.664 624.493 782.665 622.592 780.212 622.604Z" fill="#211D1D" fill-opacity="0.2"/>
<path d="M520.273 354.489C521.754 354.481 522.96 355.629 522.968 357.05C522.976 358.473 521.78 359.632 520.301 359.64C518.819 359.646 517.612 358.5 517.604 357.077C517.596 355.654 518.791 354.496 520.273 354.489Z" fill="#F5F5F5" fill-opacity="0.6"/>
<path d="M520.261 352.686C522.775 352.675 524.83 354.629 524.842 357.042C524.856 359.456 522.821 361.43 520.307 361.441C517.794 361.453 515.739 359.5 515.725 357.087C515.713 354.673 517.748 352.699 520.261 352.686ZM520.271 354.489C518.79 354.497 517.594 355.654 517.602 357.077C517.61 358.5 518.818 359.646 520.299 359.64C521.779 359.632 522.974 358.473 522.966 357.05C522.958 355.629 521.753 354.481 520.271 354.489Z" fill="#211D1D" fill-opacity="0.2"/>
<path d="M362.881 459.147C366.257 459.129 369.008 461.744 369.026 464.987C369.042 468.23 366.319 470.872 362.945 470.887C359.568 470.904 356.817 468.289 356.799 465.047C356.781 461.804 359.506 459.162 362.881 459.147Z" fill="#F5F5F5" fill-opacity="0.6"/>
<path d="M362.869 457.344C367.276 457.323 370.878 460.748 370.9 464.978C370.924 469.209 367.358 472.669 362.951 472.69C358.547 472.711 354.944 469.286 354.922 465.056C354.898 460.825 358.465 457.365 362.869 457.344ZM362.879 459.147C359.505 459.162 356.78 461.804 356.798 465.047C356.816 468.29 359.567 470.905 362.943 470.887C366.318 470.872 369.041 468.23 369.025 464.987C369.007 461.744 366.256 459.129 362.879 459.147Z" fill="#211D1D" fill-opacity="0.2"/>
<path d="M482.075 481.205C480.391 481.215 479.018 479.909 479.01 478.293C479.002 476.676 480.359 475.357 482.045 475.349C483.73 475.34 485.101 476.645 485.109 478.262C485.117 479.88 483.76 481.198 482.075 481.205Z" fill="#F5F5F5" fill-opacity="0.6"/>
<path d="M482.035 473.546C484.75 473.533 486.973 475.645 486.985 478.252C486.999 480.861 484.802 482.994 482.085 483.008C479.37 483.021 477.149 480.909 477.135 478.302C477.121 475.693 479.318 473.56 482.035 473.546ZM482.045 475.349C480.36 475.357 479 476.676 479.01 478.292C479.018 479.909 480.392 481.214 482.075 481.205C483.76 481.197 485.118 479.88 485.11 478.262C485.102 476.645 483.731 475.339 482.045 475.349Z" fill="#211D1D" fill-opacity="0.2"/>
<path d="M477.227 497.319C479.13 497.31 480.679 498.784 480.689 500.614C480.699 502.442 479.164 503.932 477.261 503.941C475.357 503.951 473.806 502.476 473.796 500.647C473.786 498.819 475.321 497.329 477.227 497.319Z" fill="#F5F5F5" fill-opacity="0.6"/>
<path d="M477.217 495.519C480.15 495.503 482.553 497.786 482.567 500.605C482.581 503.423 480.206 505.729 477.271 505.742C474.334 505.758 471.935 503.477 471.919 500.656C471.903 497.838 474.28 495.532 477.217 495.519ZM477.227 497.319C475.322 497.329 473.787 498.819 473.797 500.647C473.807 502.476 475.358 503.951 477.261 503.941C479.165 503.932 480.7 502.442 480.69 500.614C480.68 498.784 479.131 497.312 477.227 497.319Z" fill="#211D1D" fill-opacity="0.2"/>
<path d="M422.528 537.606C424.018 537.598 425.233 538.754 425.241 540.185C425.249 541.617 424.046 542.782 422.556 542.79C421.067 542.798 419.851 541.642 419.843 540.211C419.837 538.781 421.039 537.614 422.528 537.606Z" fill="#F5F5F5" fill-opacity="0.6"/>
<path d="M422.517 535.805C425.04 535.794 427.103 537.754 427.115 540.175C427.129 542.598 425.088 544.579 422.565 544.591C420.042 544.605 417.981 542.642 417.967 540.221C417.953 537.798 419.996 535.817 422.517 535.805ZM422.527 537.606C421.037 537.614 419.836 538.781 419.842 540.211C419.85 541.642 421.065 542.798 422.555 542.79C424.044 542.782 425.248 541.615 425.24 540.185C425.232 538.754 424.016 537.598 422.527 537.606Z" fill="#211D1D" fill-opacity="0.2"/>
<path d="M164.625 536.957C167.216 536.944 169.33 538.952 169.342 541.438C169.354 543.927 167.266 545.954 164.675 545.967C162.084 545.981 159.971 543.972 159.959 541.485C159.945 538.998 162.034 536.969 164.625 536.957Z" fill="#F5F5F5" fill-opacity="0.6"/>
<path d="M164.615 535.154C168.238 535.137 171.199 537.952 171.219 541.431C171.237 544.908 168.306 547.751 164.685 547.769C161.063 547.788 158.102 544.971 158.084 541.494C158.064 538.017 160.995 535.171 164.615 535.154ZM164.625 536.957C162.034 536.969 159.945 538.998 159.959 541.485C159.971 543.972 162.084 545.981 164.675 545.967C167.266 545.954 169.353 543.927 169.341 541.438C169.329 538.952 167.216 536.944 164.625 536.957Z" fill="#211D1D" fill-opacity="0.2"/>
<path d="M111.777 344.509C114.756 344.494 117.183 346.801 117.197 349.66C117.211 352.521 114.81 354.852 111.831 354.867C108.854 354.881 106.427 352.575 106.411 349.714C106.395 346.853 108.798 344.524 111.777 344.509Z" fill="#F5F5F5" fill-opacity="0.6"/>
<path d="M111.767 342.706C115.775 342.687 119.052 345.803 119.074 349.653C119.094 353.502 115.849 356.649 111.841 356.668C107.832 356.687 104.556 353.573 104.536 349.724C104.516 345.874 107.758 342.725 111.767 342.706ZM111.777 344.509C108.798 344.524 106.395 346.853 106.411 349.714C106.427 352.575 108.854 354.881 111.831 354.867C114.81 354.852 117.211 352.521 117.197 349.66C117.183 346.801 114.756 344.494 111.777 344.509Z" fill="#211D1D" fill-opacity="0.2"/>
<path d="M752.691 668.282C755.921 668.266 758.552 670.766 758.568 673.868C758.586 676.969 755.979 679.496 752.75 679.513C749.522 679.529 746.889 677.026 746.873 673.926C746.857 670.823 749.462 668.297 752.691 668.282Z" fill="#F5F5F5" fill-opacity="0.6"/>
<path d="M752.681 666.479C756.942 666.458 760.424 669.77 760.446 673.859C760.466 677.951 757.019 681.293 752.761 681.316C748.503 681.335 745.018 678.026 744.998 673.934C744.976 669.844 748.423 666.5 752.681 666.479ZM752.691 668.282C749.462 668.297 746.857 670.824 746.873 673.926C746.889 677.027 749.522 679.529 752.751 679.514C755.98 679.496 758.587 676.97 758.569 673.868C758.553 670.766 755.922 668.266 752.691 668.282Z" fill="#211D1D" fill-opacity="0.2"/>
<path d="M694.726 611.212C694.716 609.426 696.216 607.971 698.075 607.962C699.937 607.952 701.45 609.394 701.46 611.18C701.47 612.965 699.97 614.42 698.109 614.43C696.25 614.438 694.736 612.998 694.726 611.212Z" fill="#F5F5F5" fill-opacity="0.6"/>
<path d="M698.067 606.159C700.958 606.145 703.321 608.394 703.337 611.17C703.353 613.946 701.012 616.217 698.119 616.231C695.228 616.244 692.863 613.998 692.849 611.222C692.835 608.444 695.174 606.174 698.067 606.159ZM698.075 607.962C696.216 607.971 694.716 609.426 694.726 611.212C694.736 612.998 696.25 614.438 698.109 614.43C699.97 614.42 701.47 612.965 701.46 611.18C701.452 609.394 699.936 607.952 698.075 607.962Z" fill="#211D1D" fill-opacity="0.2"/>
<path d="M590.091 605.517C593.146 605.504 595.635 607.869 595.651 610.803C595.667 613.739 593.202 616.129 590.147 616.145C587.091 616.16 584.601 613.793 584.585 610.859C584.569 607.923 587.035 605.533 590.091 605.517Z" fill="#F5F5F5" fill-opacity="0.6"/>
<path d="M590.082 603.717C594.167 603.696 597.507 606.871 597.527 610.796C597.549 614.718 594.243 617.926 590.156 617.948C586.072 617.966 582.731 614.791 582.711 610.869C582.691 606.944 585.996 603.736 590.082 603.717ZM590.092 605.517C587.035 605.533 584.57 607.923 584.586 610.859C584.602 613.793 587.091 616.16 590.148 616.145C593.203 616.129 595.668 613.739 595.652 610.803C595.636 607.869 593.147 605.504 590.092 605.517Z" fill="#211D1D" fill-opacity="0.2"/>
<path d="M430.674 677.539C433.339 677.526 435.51 679.592 435.524 682.151C435.538 684.711 433.389 686.796 430.724 686.809C428.059 686.822 425.888 684.757 425.874 682.197C425.86 679.638 428.009 677.553 430.674 677.539Z" fill="#F5F5F5" fill-opacity="0.6"/>
<path d="M430.667 675.737C434.361 675.719 437.384 678.592 437.404 682.141C437.42 685.69 434.429 688.593 430.735 688.61C427.038 688.629 424.015 685.757 423.999 682.207C423.979 678.657 426.97 675.756 430.667 675.737ZM430.675 677.539C428.01 677.553 425.861 679.638 425.875 682.197C425.889 684.757 428.06 686.822 430.725 686.809C433.39 686.796 435.539 684.711 435.525 682.151C435.513 679.59 433.34 677.526 430.675 677.539Z" fill="#211D1D" fill-opacity="0.2"/>
<path d="M563.934 559.773C565.892 559.763 567.485 561.279 567.495 563.157C567.505 565.037 565.928 566.567 563.97 566.577C562.015 566.586 560.422 565.071 560.412 563.192C560.402 561.314 561.979 559.782 563.934 559.773Z" fill="#F5F5F5" fill-opacity="0.6"/>
<path d="M563.926 557.971C566.913 557.956 569.356 560.28 569.372 563.148C569.388 566.018 566.969 568.364 563.98 568.378C560.993 568.393 558.55 566.07 558.534 563.202C558.518 560.331 560.937 557.985 563.926 557.971ZM563.934 559.773C561.979 559.782 560.401 561.314 560.411 563.192C560.419 565.071 562.015 566.586 563.97 566.577C565.927 566.567 567.505 565.037 567.495 563.157C567.485 561.279 565.891 559.763 563.934 559.773Z" fill="#211D1D" fill-opacity="0.2"/>
<path d="M494.461 257.552C496.802 257.54 498.708 259.352 498.722 261.599C498.732 263.847 496.846 265.679 494.505 265.688C492.164 265.702 490.257 263.889 490.245 261.641C490.233 259.395 492.122 257.563 494.461 257.552Z" fill="#F5F5F5" fill-opacity="0.6"/>
<path d="M494.45 255.749C497.823 255.731 500.578 258.354 500.596 261.591C500.614 264.828 497.885 267.474 494.514 267.491C491.143 267.508 488.386 264.888 488.368 261.651C488.35 258.414 491.079 255.766 494.45 255.749ZM494.46 257.551C492.121 257.563 490.232 259.395 490.244 261.641C490.256 263.889 492.163 265.702 494.504 265.688C496.845 265.679 498.73 263.847 498.72 261.599C498.708 259.352 496.801 257.54 494.46 257.551Z" fill="#211D1D" fill-opacity="0.2"/>
<path d="M386.043 289.943C387.781 289.936 389.198 291.281 389.206 292.952C389.216 294.62 387.815 295.98 386.077 295.989C384.338 295.997 382.922 294.651 382.912 292.983C382.904 291.312 384.306 289.953 386.043 289.943Z" fill="#F5F5F5" fill-opacity="0.6"/>
<path d="M386.033 288.142C388.804 288.129 391.069 290.281 391.085 292.942C391.099 295.601 388.854 297.777 386.087 297.79C383.316 297.804 381.049 295.651 381.035 292.99C381.021 290.331 383.264 288.156 386.033 288.142ZM386.043 289.943C384.305 289.953 382.904 291.312 382.912 292.983C382.922 294.651 384.337 295.997 386.077 295.989C387.814 295.98 389.216 294.62 389.206 292.952C389.198 291.282 387.78 289.936 386.043 289.943Z" fill="#211D1D" fill-opacity="0.2"/>
<path d="M386.175 198.543C382.435 198.562 379.384 195.663 379.366 192.071C379.348 188.477 382.363 185.549 386.105 185.53C389.848 185.512 392.897 188.409 392.917 192.004C392.935 195.598 389.918 198.524 386.175 198.543Z" fill="#F5F5F5" fill-opacity="0.6"/>
<path d="M386.097 183.728C390.865 183.705 394.766 187.413 394.792 191.994C394.816 196.577 390.955 200.321 386.185 200.346C381.415 200.369 377.514 196.659 377.488 192.078C377.464 187.497 381.327 183.752 386.097 183.728ZM386.105 185.529C382.365 185.549 379.348 188.477 379.366 192.071C379.384 195.663 382.435 198.562 386.175 198.543C389.918 198.524 392.935 195.598 392.917 192.004C392.897 188.409 389.848 185.512 386.105 185.529Z" fill="#211D1D" fill-opacity="0.2"/>
<path d="M278.441 243.28C280.351 243.273 281.906 244.751 281.916 246.584C281.926 248.418 280.387 249.914 278.475 249.921C276.566 249.931 275.011 248.453 275.001 246.619C274.991 244.785 276.532 243.29 278.441 243.28Z" fill="#F5F5F5" fill-opacity="0.6"/>
<path d="M278.432 241.479C281.373 241.464 283.778 243.751 283.794 246.575C283.808 249.399 281.427 251.711 278.486 251.724C275.545 251.74 273.14 249.453 273.124 246.629C273.11 243.804 275.489 241.493 278.432 241.479ZM278.442 243.28C276.531 243.29 274.991 244.785 275.001 246.619C275.011 248.453 276.567 249.931 278.476 249.921C280.387 249.914 281.927 248.418 281.917 246.585C281.907 244.751 280.351 243.273 278.442 243.28Z" fill="#211D1D" fill-opacity="0.2"/>
<path d="M58.8085 593.957C61.2755 593.946 63.2887 595.858 63.3007 598.229C63.3127 600.601 61.3215 602.532 58.8524 602.545C56.3853 602.557 54.3722 600.645 54.3602 598.273C54.3462 595.903 56.3374 593.971 58.8085 593.957Z" fill="#F5F5F5" fill-opacity="0.6"/>
<path d="M58.799 592.156C62.2977 592.139 65.1587 594.86 65.1767 598.22C65.1966 601.581 62.3637 604.33 58.863 604.347C55.3644 604.364 52.5014 601.643 52.4834 598.282C52.4654 594.922 55.2983 592.174 58.799 592.156ZM58.809 593.957C56.338 593.97 54.3467 595.903 54.3607 598.273C54.3727 600.645 56.3859 602.557 58.853 602.545C61.322 602.532 63.3133 600.601 63.3013 598.229C63.2893 595.858 61.2761 593.946 58.809 593.957Z" fill="#211D1D" fill-opacity="0.2"/>
</svg>
