<svg width="26" height="26" fill="none" xmlns="http://www.w3.org/2000/svg"><path d="M22.137 3.776A12.886 12.886 0 0012.987 0c-3.45 0-6.705 1.34-9.163 3.772C1.36 6.21.004 9.448 0 12.88v.006c0 2.077.546 4.172 1.582 6.085L.036 26l7.11-1.617a13.02 13.02 0 005.836 1.387h.005c3.45 0 6.704-1.34 9.163-3.773 2.465-2.44 3.823-5.674 3.825-9.107.001-3.41-1.362-6.647-3.838-9.114zm-9.15 19.964h-.005c-1.82 0-3.622-.457-5.213-1.321l-.336-.183-4.728 1.076 1.027-4.668-.198-.34c-.985-1.698-1.505-3.572-1.505-5.42.004-5.982 4.92-10.855 10.957-10.855a10.87 10.87 0 017.718 3.184c2.091 2.084 3.242 4.81 3.241 7.676-.002 5.983-4.918 10.851-10.958 10.851z" fill="#fff"/><path d="M9.453 7.204h-.57c-.198 0-.52.074-.791.37-.273.297-1.04 1.013-1.04 2.47 0 1.457 1.064 2.864 1.213 3.062.148.198 2.055 3.283 5.074 4.47 2.51.986 3.02.79 3.565.74.545-.05 1.758-.716 2.005-1.407.248-.692.248-1.284.174-1.408-.075-.123-.273-.197-.57-.345-.297-.149-1.753-.877-2.025-.976-.273-.099-.47-.148-.669.149-.198.295-.781.98-.955 1.178-.173.198-.346.222-.643.074-.297-.148-1.245-.466-2.38-1.475-.883-.785-1.496-1.786-1.669-2.082-.173-.296-.018-.457.13-.604.134-.133.314-.314.463-.487.148-.173.19-.296.29-.494.099-.197.05-.37-.025-.518-.074-.149-.644-1.613-.909-2.198-.222-.494-.456-.51-.668-.519z" fill="#fff"/></svg>